M48
; DRILL file {KiCad (5.1.10)-1} date 09/02/21 21:34:47
; FORMAT={-:-/ absolute / inch / decimal}
; #@! TF.CreationDate,2021-09-02T21:34:47+08:00
; #@! TF.GenerationSoftware,Kicad,Pcbnew,(5.1.10)-1
; #@! TF.FileFunction,NonPlated,1,2,NPTH
FMAT,2
INCH
T1C0.0157
T2C0.0689
T3C0.1200
T4C0.1570
%
G90
G05
T1
X5.836Y1.0317
X6.0703Y1.0317
T2
X-0.524Y-1.5
X-0.3638Y-0.75
X-0.2Y0.0
X-0.124Y-1.5
X0.0362Y-0.75
X0.2Y0.0
X0.3122Y-3.0843
X0.4059Y-3.0843
X0.476Y-1.5843
X0.6635Y-1.5843
X0.687Y-2.3343
X0.7063Y-0.0843
X0.7122Y-3.0843
X0.7299Y-0.8343
X0.8059Y-3.0843
X0.876Y-1.5843
X1.0635Y-1.5843
X1.087Y-2.3343
X1.1063Y-0.0843
X1.1299Y-0.8343
X1.4563Y-0.0843
X1.6673Y-0.8343
X1.6949Y-1.5843
X1.8563Y-0.0843
X1.9055Y-2.3343
X2.0673Y-0.8343
X2.0949Y-1.5843
X2.1902Y0.0
X2.3055Y-2.3343
X2.4788Y-0.7698
X2.5063Y-1.5427
X2.5276Y-3.1411
X2.5902Y0.0
X2.6193Y-3.1606
X2.717Y-2.3541
X2.87Y-0.853
X2.8976Y-1.6258
X2.9189Y-3.2243
X3.0016Y-0.1143
X3.0106Y-3.2438
X3.1082Y-2.4373
X3.2124Y-0.9258
X3.2399Y-1.6986
X3.3929Y-0.1975
X3.4506Y-2.51
X3.6036Y-1.0089
X3.6312Y-1.7818
X3.7352Y-0.2703
X3.8362Y-3.3587
X3.8418Y-2.5932
X3.9279Y-3.3782
X3.946Y-1.0817
X3.9736Y-1.8545
X4.1265Y-0.3534
X4.1842Y-2.666
X4.2275Y-3.4419
X4.3192Y-3.4614
X4.3373Y-1.1649
X4.3648Y-1.9377
X4.4688Y-0.4262
X4.5754Y-2.7491
X4.6796Y-1.2376
X4.7072Y-2.0105
X4.8601Y-0.5094
X4.9178Y-2.8219
X5.0285Y-3.6122
X5.0709Y-1.3208
X5.0984Y-2.0936
X5.1201Y-3.6316
X5.2024Y-0.5821
X5.3091Y-2.9051
X5.4197Y-3.6953
X5.5114Y-3.7148
X5.5937Y-0.6653
X6.1Y-1.3988
X6.2283Y-2.9051
X6.311Y-0.5873
X6.4394Y-2.0936
X6.4913Y-1.3156
X6.6196Y-2.8219
X6.7023Y-0.5042
X6.8306Y-2.0105
X6.8336Y-1.2428
X6.962Y-2.7491
X7.0276Y-3.5022
X7.0446Y-0.4314
X7.173Y-1.9377
X7.2249Y-1.1597
X7.3532Y-2.666
X7.4189Y-3.419
X7.4359Y-0.3482
X7.5642Y-1.8545
X7.5672Y-1.0869
X7.6956Y-2.5932
X7.7782Y-0.2755
X7.9066Y-1.7818
X7.9585Y-1.0037
X8.0868Y-2.51
X8.1695Y-0.1923
X8.2978Y-1.6986
X8.3008Y-0.931
X8.4292Y-2.4373
X8.5119Y-0.1195
X8.5268Y-3.2438
X8.6185Y-3.2243
X8.6402Y-1.6258
X8.6921Y-0.8478
X8.8204Y-2.3541
X8.9031Y-0.0364
X8.9181Y-3.1606
X9.0098Y-3.1411
X9.0315Y-1.5427
X9.1035Y-0.7925
X9.2319Y-2.3343
X9.3146Y0.0
X9.4429Y-1.5843
X9.5035Y-0.7925
X9.6319Y-2.3343
X9.7146Y0.0
X9.837Y-0.8343
X9.8429Y-1.5843
X9.9819Y-2.3343
X10.048Y-0.0843
X10.1929Y-1.5843
X10.237Y-0.8343
X10.3819Y-2.3343
X10.448Y-0.0843
X10.587Y-0.8343
X10.5929Y-1.5843
X10.798Y-0.0843
X10.987Y-0.8343
X11.0132Y-2.3343
X11.173Y-0.0843
X11.198Y-0.0843
X11.3882Y-2.3343
X11.4114Y-1.5843
X11.4132Y-2.3343
X11.5248Y-0.8343
X11.548Y-0.0843
X11.573Y-0.0843
X11.712Y-3.0861
X11.7882Y-2.3343
X11.8058Y-3.0861
X11.8114Y-1.5843
X11.9248Y-0.8343
X11.948Y-0.0843
X12.0444Y-2.3343
X12.112Y-3.0861
X12.2058Y-3.0861
X12.4444Y-2.3343
T3
X0.4183Y-2.0593
X1.3558Y-2.0593
X3.5162Y-3.5719
X3.6079Y-3.5913
X4.4332Y-3.7668
X4.5249Y-3.7863
X6.8219Y-3.8271
X7.7389Y-3.6322
X10.9043Y0.1907
X11.1194Y-2.0593
X11.1427Y-1.8593
X11.8418Y0.1907
X12.0569Y-2.0593
X12.0802Y-1.8593
T4
X-0.324Y-1.5
X-0.1638Y-0.75
X0.0Y0.0
X0.4183Y-2.6593
X0.5122Y-3.0843
X0.6059Y-3.0843
X0.676Y-1.5843
X0.8635Y-1.5843
X0.887Y-2.3343
X0.9063Y-0.0843
X0.9299Y-0.8343
X1.3558Y-2.6593
X1.6563Y-0.0843
X1.8673Y-0.8343
X1.8949Y-1.5843
X2.1055Y-2.3343
X2.3902Y0.0
X2.6744Y-0.8114
X2.702Y-1.5843
X2.7232Y-3.1827
X2.8149Y-3.2022
X2.9126Y-2.3957
X3.1972Y-0.1559
X3.408Y-0.9674
X3.4356Y-1.7402
X3.6409Y-2.985
X3.6462Y-2.5516
X3.7326Y-3.0045
X3.9309Y-0.3118
X4.0318Y-3.4003
X4.1235Y-3.4198
X4.1416Y-1.1233
X4.1692Y-1.8961
X4.3798Y-2.7075
X4.5579Y-3.1799
X4.6496Y-3.1994
X4.6645Y-0.4678
X4.8752Y-1.2792
X4.9028Y-2.0521
X5.1134Y-2.8635
X5.2241Y-3.6537
X5.3157Y-3.6732
X5.3981Y-0.6237
X6.2956Y-1.3572
X6.424Y-2.8635
X6.5066Y-0.5458
X6.635Y-2.0521
X6.6972Y-3.2402
X7.0292Y-1.2012
X7.1576Y-2.7075
X7.2232Y-3.4606
X7.2403Y-0.3898
X7.3686Y-1.8961
X7.6142Y-3.0453
X7.7628Y-1.0453
X7.8912Y-2.5516
X7.9739Y-0.2339
X8.1022Y-1.7402
X8.4965Y-0.8894
X8.6248Y-2.3957
X8.7075Y-0.078
X8.7225Y-3.2022
X8.8142Y-3.1827
X8.8358Y-1.5843
X9.3035Y-0.7925
X9.4319Y-2.3343
X9.5146Y0.0
X9.6429Y-1.5843
X10.037Y-0.8343
X10.1819Y-2.3343
X10.248Y-0.0843
X10.3929Y-1.5843
X10.787Y-0.8343
X10.9043Y-0.4093
X10.998Y-0.0843
X11.1194Y-2.6593
X11.1427Y-1.2593
X11.2132Y-2.3343
X11.373Y-0.0843
X11.5882Y-2.3343
X11.6114Y-1.5843
X11.7248Y-0.8343
X11.748Y-0.0843
X11.8418Y-0.4093
X11.912Y-3.0861
X12.0058Y-3.0861
X12.0569Y-2.6593
X12.0802Y-1.2593
X12.2444Y-2.3343
T0
M30
