G04 #@! TF.GenerationSoftware,KiCad,Pcbnew,(5.1.10)-1*
G04 #@! TF.CreationDate,2021-09-02T21:34:46+08:00*
G04 #@! TF.ProjectId,AELITH,41454c49-5448-42e6-9b69-6361645f7063,rev?*
G04 #@! TF.SameCoordinates,Original*
G04 #@! TF.FileFunction,Legend,Top*
G04 #@! TF.FilePolarity,Positive*
%FSLAX46Y46*%
G04 Gerber Fmt 4.6, Leading zero omitted, Abs format (unit mm)*
G04 Created by KiCad (PCBNEW (5.1.10)-1) date 2021-09-02 21:34:46*
%MOMM*%
%LPD*%
G01*
G04 APERTURE LIST*
%ADD10C,0.250000*%
%ADD11C,0.375000*%
%ADD12C,1.000000*%
%ADD13C,0.120000*%
%ADD14C,0.150000*%
G04 APERTURE END LIST*
D10*
X157979047Y26288571D02*
X158740952Y26288571D01*
X158360000Y25907619D02*
X158360000Y26669523D01*
X134953422Y30249821D02*
X135715327Y30249821D01*
X135334375Y29868869D02*
X135334375Y30630773D01*
X162512351Y27138244D02*
X162321875Y27138244D01*
X162226636Y27090625D01*
X162179017Y27043005D01*
X162083779Y26900148D01*
X162036160Y26709672D01*
X162036160Y26328720D01*
X162083779Y26233482D01*
X162131398Y26185863D01*
X162226636Y26138244D01*
X162417113Y26138244D01*
X162512351Y26185863D01*
X162559970Y26233482D01*
X162607589Y26328720D01*
X162607589Y26566815D01*
X162559970Y26662053D01*
X162512351Y26709672D01*
X162417113Y26757291D01*
X162226636Y26757291D01*
X162131398Y26709672D01*
X162083779Y26662053D01*
X162036160Y26566815D01*
X162559970Y29678244D02*
X162083779Y29678244D01*
X162036160Y29202053D01*
X162083779Y29249672D01*
X162179017Y29297291D01*
X162417113Y29297291D01*
X162512351Y29249672D01*
X162559970Y29202053D01*
X162607589Y29106815D01*
X162607589Y28868720D01*
X162559970Y28773482D01*
X162512351Y28725863D01*
X162417113Y28678244D01*
X162179017Y28678244D01*
X162083779Y28725863D01*
X162036160Y28773482D01*
X171164285Y27122380D02*
X171211904Y27170000D01*
X171307142Y27217619D01*
X171545238Y27217619D01*
X171640476Y27170000D01*
X171688095Y27122380D01*
X171735714Y27027142D01*
X171735714Y26931904D01*
X171688095Y26789047D01*
X171116666Y26217619D01*
X171735714Y26217619D01*
X171735714Y28757619D02*
X171164285Y28757619D01*
X171450000Y28757619D02*
X171450000Y29757619D01*
X171354761Y29614761D01*
X171259523Y29519523D01*
X171164285Y29471904D01*
D11*
X162841964Y23292678D02*
X162841964Y24792678D01*
X163484821Y23364107D02*
X163699107Y23292678D01*
X164056250Y23292678D01*
X164199107Y23364107D01*
X164270535Y23435535D01*
X164341964Y23578392D01*
X164341964Y23721250D01*
X164270535Y23864107D01*
X164199107Y23935535D01*
X164056250Y24006964D01*
X163770535Y24078392D01*
X163627678Y24149821D01*
X163556250Y24221250D01*
X163484821Y24364107D01*
X163484821Y24506964D01*
X163556250Y24649821D01*
X163627678Y24721250D01*
X163770535Y24792678D01*
X164127678Y24792678D01*
X164341964Y24721250D01*
X164984821Y23292678D02*
X164984821Y24792678D01*
X165556250Y24792678D01*
X165699107Y24721250D01*
X165770535Y24649821D01*
X165841964Y24506964D01*
X165841964Y24292678D01*
X165770535Y24149821D01*
X165699107Y24078392D01*
X165556250Y24006964D01*
X164984821Y24006964D01*
D12*
X186531250Y29924375D02*
X313531250Y29924375D01*
X186531250Y18018125D02*
X313531250Y18018125D01*
X-11112500Y18018125D02*
X115887500Y18018125D01*
X-11112500Y29924375D02*
X115887500Y29924375D01*
D11*
X183637946Y27515446D02*
X182923660Y27015446D01*
X183637946Y26658303D02*
X182137946Y26658303D01*
X182137946Y27229732D01*
X182209375Y27372589D01*
X182280803Y27444017D01*
X182423660Y27515446D01*
X182637946Y27515446D01*
X182780803Y27444017D01*
X182852232Y27372589D01*
X182923660Y27229732D01*
X182923660Y26658303D01*
X183566517Y28086875D02*
X183637946Y28301160D01*
X183637946Y28658303D01*
X183566517Y28801160D01*
X183495089Y28872589D01*
X183352232Y28944017D01*
X183209375Y28944017D01*
X183066517Y28872589D01*
X182995089Y28801160D01*
X182923660Y28658303D01*
X182852232Y28372589D01*
X182780803Y28229732D01*
X182709375Y28158303D01*
X182566517Y28086875D01*
X182423660Y28086875D01*
X182280803Y28158303D01*
X182209375Y28229732D01*
X182137946Y28372589D01*
X182137946Y28729732D01*
X182209375Y28944017D01*
X182137946Y29372589D02*
X182137946Y30229732D01*
X183637946Y29801160D02*
X182137946Y29801160D01*
X118955357Y25110535D02*
X119026785Y25324821D01*
X119098214Y25396250D01*
X119241071Y25467678D01*
X119455357Y25467678D01*
X119598214Y25396250D01*
X119669642Y25324821D01*
X119741071Y25181964D01*
X119741071Y24610535D01*
X118241071Y24610535D01*
X118241071Y25110535D01*
X118312500Y25253392D01*
X118383928Y25324821D01*
X118526785Y25396250D01*
X118669642Y25396250D01*
X118812500Y25324821D01*
X118883928Y25253392D01*
X118955357Y25110535D01*
X118955357Y24610535D01*
X118241071Y26396250D02*
X118241071Y26681964D01*
X118312500Y26824821D01*
X118455357Y26967678D01*
X118741071Y27039107D01*
X119241071Y27039107D01*
X119526785Y26967678D01*
X119669642Y26824821D01*
X119741071Y26681964D01*
X119741071Y26396250D01*
X119669642Y26253392D01*
X119526785Y26110535D01*
X119241071Y26039107D01*
X118741071Y26039107D01*
X118455357Y26110535D01*
X118312500Y26253392D01*
X118241071Y26396250D01*
X118241071Y27967678D02*
X118241071Y28253392D01*
X118312500Y28396250D01*
X118455357Y28539107D01*
X118741071Y28610535D01*
X119241071Y28610535D01*
X119526785Y28539107D01*
X119669642Y28396250D01*
X119741071Y28253392D01*
X119741071Y27967678D01*
X119669642Y27824821D01*
X119526785Y27681964D01*
X119241071Y27610535D01*
X118741071Y27610535D01*
X118455357Y27681964D01*
X118312500Y27824821D01*
X118241071Y27967678D01*
X118241071Y29039107D02*
X118241071Y29896250D01*
X119741071Y29467678D02*
X118241071Y29467678D01*
X129488839Y24086428D02*
X129488839Y25586428D01*
X130060267Y25586428D01*
X130203125Y25515000D01*
X130274553Y25443571D01*
X130345982Y25300714D01*
X130345982Y25086428D01*
X130274553Y24943571D01*
X130203125Y24872142D01*
X130060267Y24800714D01*
X129488839Y24800714D01*
X131274553Y25586428D02*
X131560267Y25586428D01*
X131703125Y25515000D01*
X131845982Y25372142D01*
X131917410Y25086428D01*
X131917410Y24586428D01*
X131845982Y24300714D01*
X131703125Y24157857D01*
X131560267Y24086428D01*
X131274553Y24086428D01*
X131131696Y24157857D01*
X130988839Y24300714D01*
X130917410Y24586428D01*
X130917410Y25086428D01*
X130988839Y25372142D01*
X131131696Y25515000D01*
X131274553Y25586428D01*
X132417410Y25586428D02*
X132774553Y24086428D01*
X133060267Y25157857D01*
X133345982Y24086428D01*
X133703125Y25586428D01*
X134274553Y24872142D02*
X134774553Y24872142D01*
X134988839Y24086428D02*
X134274553Y24086428D01*
X134274553Y25586428D01*
X134988839Y25586428D01*
X136488839Y24086428D02*
X135988839Y24800714D01*
X135631696Y24086428D02*
X135631696Y25586428D01*
X136203125Y25586428D01*
X136345982Y25515000D01*
X136417410Y25443571D01*
X136488839Y25300714D01*
X136488839Y25086428D01*
X136417410Y24943571D01*
X136345982Y24872142D01*
X136203125Y24800714D01*
X135631696Y24800714D01*
D13*
X160163750Y22510000D02*
X160163750Y20670000D01*
X160163750Y20670000D02*
X164003750Y20670000D01*
X164003750Y20670000D02*
X164003750Y22510000D01*
X164003750Y22510000D02*
X160163750Y22510000D01*
X159213750Y21590000D02*
X160163750Y21590000D01*
X164953750Y21590000D02*
X164003750Y21590000D01*
X139208750Y25288125D02*
X139208750Y23448125D01*
X139208750Y23448125D02*
X143048750Y23448125D01*
X143048750Y23448125D02*
X143048750Y25288125D01*
X143048750Y25288125D02*
X139208750Y25288125D01*
X138258750Y24368125D02*
X139208750Y24368125D01*
X143998750Y24368125D02*
X143048750Y24368125D01*
X142969375Y18685625D02*
X142969375Y20525625D01*
X142969375Y20525625D02*
X139129375Y20525625D01*
X139129375Y20525625D02*
X139129375Y18685625D01*
X139129375Y18685625D02*
X142969375Y18685625D01*
X143919375Y19605625D02*
X142969375Y19605625D01*
X138179375Y19605625D02*
X139129375Y19605625D01*
X142969375Y21066875D02*
X142969375Y22906875D01*
X142969375Y22906875D02*
X139129375Y22906875D01*
X139129375Y22906875D02*
X139129375Y21066875D01*
X139129375Y21066875D02*
X142969375Y21066875D01*
X143919375Y21986875D02*
X142969375Y21986875D01*
X138179375Y21986875D02*
X139129375Y21986875D01*
X160163750Y20128750D02*
X160163750Y18288750D01*
X160163750Y18288750D02*
X164003750Y18288750D01*
X164003750Y18288750D02*
X164003750Y20128750D01*
X164003750Y20128750D02*
X160163750Y20128750D01*
X159213750Y19208750D02*
X160163750Y19208750D01*
X164953750Y19208750D02*
X164003750Y19208750D01*
X128890000Y22906875D02*
X128890000Y21066875D01*
X128890000Y21066875D02*
X132730000Y21066875D01*
X132730000Y21066875D02*
X132730000Y22906875D01*
X132730000Y22906875D02*
X128890000Y22906875D01*
X127940000Y21986875D02*
X128890000Y21986875D01*
X133680000Y21986875D02*
X132730000Y21986875D01*
X157499125Y24988125D02*
X157499125Y18748125D01*
X152857125Y24988125D02*
X152857125Y18748125D01*
X157499125Y24988125D02*
X156103125Y24988125D01*
X154253125Y24988125D02*
X152857125Y24988125D01*
X157499125Y18748125D02*
X156103125Y18748125D01*
X154253125Y18748125D02*
X152857125Y18748125D01*
X170535625Y23741250D02*
X170535625Y19201250D01*
X168395625Y23741250D02*
X168395625Y19201250D01*
X170535625Y23741250D02*
X170520625Y23741250D01*
X168410625Y23741250D02*
X168395625Y23741250D01*
X170535625Y19201250D02*
X170520625Y19201250D01*
X168410625Y19201250D02*
X168395625Y19201250D01*
X184823125Y24138125D02*
X184823125Y19598125D01*
X182683125Y24138125D02*
X182683125Y19598125D01*
X184823125Y24138125D02*
X184808125Y24138125D01*
X182698125Y24138125D02*
X182683125Y24138125D01*
X184823125Y19598125D02*
X184808125Y19598125D01*
X182698125Y19598125D02*
X182683125Y19598125D01*
D14*
X155834375Y32305625D02*
X146584375Y32305625D01*
X155684375Y25645625D02*
X146734375Y25645625D01*
X146729375Y34055625D02*
X146734375Y34815625D01*
X155684375Y34815625D02*
X146734375Y34815625D01*
X155684375Y34815625D02*
X155689375Y34055625D01*
X151209375Y32305625D02*
X151209375Y31035625D01*
D13*
X176867813Y2906250D02*
X176867813Y8366250D01*
X125947813Y2906250D02*
X176867813Y2906250D01*
X125947813Y15826250D02*
X125947813Y2906250D01*
X176867813Y15826250D02*
X125947813Y15826250D01*
X176867813Y10366250D02*
X176867813Y15826250D01*
X176867813Y8366250D02*
G75*
G02*
X176867813Y10366250I0J1000000D01*
G01*
X142569375Y28407500D02*
X142569375Y30647500D01*
X142329375Y28407500D02*
X142329375Y30647500D01*
X142449375Y28407500D02*
X142449375Y30647500D01*
X138279375Y29527500D02*
X138929375Y29527500D01*
X143819375Y29527500D02*
X143169375Y29527500D01*
X138929375Y28407500D02*
X143169375Y28407500D01*
X138929375Y30647500D02*
X138929375Y28407500D01*
X143169375Y30647500D02*
X138929375Y30647500D01*
X143169375Y28407500D02*
X143169375Y30647500D01*
X142569375Y25629375D02*
X142569375Y27869375D01*
X142329375Y25629375D02*
X142329375Y27869375D01*
X142449375Y25629375D02*
X142449375Y27869375D01*
X138279375Y26749375D02*
X138929375Y26749375D01*
X143819375Y26749375D02*
X143169375Y26749375D01*
X138929375Y25629375D02*
X143169375Y25629375D01*
X138929375Y27869375D02*
X138929375Y25629375D01*
X143169375Y27869375D02*
X138929375Y27869375D01*
X143169375Y25629375D02*
X143169375Y27869375D01*
X170795625Y30460625D02*
X170795625Y29130625D01*
X169465625Y30460625D02*
X170795625Y30460625D01*
X170795625Y27860625D02*
X170795625Y25260625D01*
X168195625Y27860625D02*
X170795625Y27860625D01*
X168195625Y30460625D02*
X168195625Y27860625D01*
X170795625Y25260625D02*
X163055625Y25260625D01*
X168195625Y30460625D02*
X163055625Y30460625D01*
X163055625Y30460625D02*
X163055625Y25260625D01*
X-6023750Y25650000D02*
X-8263750Y25650000D01*
X-6023750Y25410000D02*
X-8263750Y25410000D01*
X-6023750Y25530000D02*
X-8263750Y25530000D01*
X-7143750Y21360000D02*
X-7143750Y22010000D01*
X-7143750Y26900000D02*
X-7143750Y26250000D01*
X-6023750Y22010000D02*
X-6023750Y26250000D01*
X-8263750Y22010000D02*
X-6023750Y22010000D01*
X-8263750Y26250000D02*
X-8263750Y22010000D01*
X-6023750Y26250000D02*
X-8263750Y26250000D01*
X131869375Y27256875D02*
X131869375Y27100875D01*
X131869375Y29572875D02*
X131869375Y29416875D01*
X134470505Y27257038D02*
G75*
G02*
X132388414Y27256875I-1041130J1079837D01*
G01*
X134470505Y29416712D02*
G75*
G03*
X132388414Y29416875I-1041130J-1079837D01*
G01*
X135101710Y27258267D02*
G75*
G02*
X131869375Y27101359I-1672335J1078608D01*
G01*
X135101710Y29415483D02*
G75*
G03*
X131869375Y29572391I-1672335J-1078608D01*
G01*
X158148750Y26310824D02*
X158548750Y26310824D01*
X158348750Y26110824D02*
X158348750Y26510824D01*
X159173750Y30461625D02*
X159913750Y30461625D01*
X159006750Y30421625D02*
X160080750Y30421625D01*
X158879750Y30381625D02*
X160207750Y30381625D01*
X158775750Y30341625D02*
X160311750Y30341625D01*
X158684750Y30301625D02*
X160402750Y30301625D01*
X158603750Y30261625D02*
X160483750Y30261625D01*
X158530750Y30221625D02*
X160556750Y30221625D01*
X158463750Y30181625D02*
X160623750Y30181625D01*
X158401750Y30141625D02*
X160685750Y30141625D01*
X158343750Y30101625D02*
X160743750Y30101625D01*
X158289750Y30061625D02*
X160797750Y30061625D01*
X158239750Y30021625D02*
X160847750Y30021625D01*
X158192750Y29981625D02*
X160894750Y29981625D01*
X160383750Y29941625D02*
X160939750Y29941625D01*
X158147750Y29941625D02*
X158703750Y29941625D01*
X160383750Y29901625D02*
X160981750Y29901625D01*
X158105750Y29901625D02*
X158703750Y29901625D01*
X160383750Y29861625D02*
X161021750Y29861625D01*
X158065750Y29861625D02*
X158703750Y29861625D01*
X160383750Y29821625D02*
X161059750Y29821625D01*
X158027750Y29821625D02*
X158703750Y29821625D01*
X160383750Y29781625D02*
X161095750Y29781625D01*
X157991750Y29781625D02*
X158703750Y29781625D01*
X160383750Y29741625D02*
X161130750Y29741625D01*
X157956750Y29741625D02*
X158703750Y29741625D01*
X160383750Y29701625D02*
X161162750Y29701625D01*
X157924750Y29701625D02*
X158703750Y29701625D01*
X160383750Y29661625D02*
X161193750Y29661625D01*
X157893750Y29661625D02*
X158703750Y29661625D01*
X160383750Y29621625D02*
X161223750Y29621625D01*
X157863750Y29621625D02*
X158703750Y29621625D01*
X160383750Y29581625D02*
X161251750Y29581625D01*
X157835750Y29581625D02*
X158703750Y29581625D01*
X160383750Y29541625D02*
X161278750Y29541625D01*
X157808750Y29541625D02*
X158703750Y29541625D01*
X160383750Y29501625D02*
X161303750Y29501625D01*
X157783750Y29501625D02*
X158703750Y29501625D01*
X160383750Y29461625D02*
X161328750Y29461625D01*
X157758750Y29461625D02*
X158703750Y29461625D01*
X160383750Y29421625D02*
X161351750Y29421625D01*
X157735750Y29421625D02*
X158703750Y29421625D01*
X160383750Y29381625D02*
X161373750Y29381625D01*
X157713750Y29381625D02*
X158703750Y29381625D01*
X160383750Y29341625D02*
X161394750Y29341625D01*
X157692750Y29341625D02*
X158703750Y29341625D01*
X160383750Y29301625D02*
X161413750Y29301625D01*
X157673750Y29301625D02*
X158703750Y29301625D01*
X160383750Y29261625D02*
X161432750Y29261625D01*
X157654750Y29261625D02*
X158703750Y29261625D01*
X160383750Y29221625D02*
X161450750Y29221625D01*
X157636750Y29221625D02*
X158703750Y29221625D01*
X160383750Y29181625D02*
X161467750Y29181625D01*
X157619750Y29181625D02*
X158703750Y29181625D01*
X160383750Y29141625D02*
X161483750Y29141625D01*
X157603750Y29141625D02*
X158703750Y29141625D01*
X160383750Y29101625D02*
X161497750Y29101625D01*
X157589750Y29101625D02*
X158703750Y29101625D01*
X160383750Y29060625D02*
X161511750Y29060625D01*
X157575750Y29060625D02*
X158703750Y29060625D01*
X160383750Y29020625D02*
X161525750Y29020625D01*
X157561750Y29020625D02*
X158703750Y29020625D01*
X160383750Y28980625D02*
X161537750Y28980625D01*
X157549750Y28980625D02*
X158703750Y28980625D01*
X160383750Y28940625D02*
X161548750Y28940625D01*
X157538750Y28940625D02*
X158703750Y28940625D01*
X160383750Y28900625D02*
X161559750Y28900625D01*
X157527750Y28900625D02*
X158703750Y28900625D01*
X160383750Y28860625D02*
X161568750Y28860625D01*
X157518750Y28860625D02*
X158703750Y28860625D01*
X160383750Y28820625D02*
X161577750Y28820625D01*
X157509750Y28820625D02*
X158703750Y28820625D01*
X160383750Y28780625D02*
X161585750Y28780625D01*
X157501750Y28780625D02*
X158703750Y28780625D01*
X160383750Y28740625D02*
X161593750Y28740625D01*
X157493750Y28740625D02*
X158703750Y28740625D01*
X160383750Y28700625D02*
X161599750Y28700625D01*
X157487750Y28700625D02*
X158703750Y28700625D01*
X160383750Y28660625D02*
X161605750Y28660625D01*
X157481750Y28660625D02*
X158703750Y28660625D01*
X160383750Y28620625D02*
X161610750Y28620625D01*
X157476750Y28620625D02*
X158703750Y28620625D01*
X160383750Y28580625D02*
X161614750Y28580625D01*
X157472750Y28580625D02*
X158703750Y28580625D01*
X160383750Y28540625D02*
X161617750Y28540625D01*
X157469750Y28540625D02*
X158703750Y28540625D01*
X160383750Y28500625D02*
X161620750Y28500625D01*
X157466750Y28500625D02*
X158703750Y28500625D01*
X157464750Y28460625D02*
X158703750Y28460625D01*
X160383750Y28460625D02*
X161622750Y28460625D01*
X157463750Y28420625D02*
X158703750Y28420625D01*
X160383750Y28420625D02*
X161623750Y28420625D01*
X157463750Y28380625D02*
X158703750Y28380625D01*
X160383750Y28380625D02*
X161623750Y28380625D01*
X161663750Y28380625D02*
G75*
G03*
X161663750Y28380625I-2120000J0D01*
G01*
X151036625Y4001250D02*
X152294625Y4001250D01*
X151036625Y5841250D02*
X152294625Y5841250D01*
X152175875Y14572500D02*
X150917875Y14572500D01*
X152175875Y12732500D02*
X150917875Y12732500D01*
X314651250Y25650000D02*
X312411250Y25650000D01*
X314651250Y25410000D02*
X312411250Y25410000D01*
X314651250Y25530000D02*
X312411250Y25530000D01*
X313531250Y21360000D02*
X313531250Y22010000D01*
X313531250Y26900000D02*
X313531250Y26250000D01*
X314651250Y22010000D02*
X314651250Y26250000D01*
X312411250Y22010000D02*
X314651250Y22010000D01*
X312411250Y26250000D02*
X312411250Y22010000D01*
X314651250Y26250000D02*
X312411250Y26250000D01*
X251151250Y25650000D02*
X248911250Y25650000D01*
X251151250Y25410000D02*
X248911250Y25410000D01*
X251151250Y25530000D02*
X248911250Y25530000D01*
X250031250Y21360000D02*
X250031250Y22010000D01*
X250031250Y26900000D02*
X250031250Y26250000D01*
X251151250Y22010000D02*
X251151250Y26250000D01*
X248911250Y22010000D02*
X251151250Y22010000D01*
X248911250Y26250000D02*
X248911250Y22010000D01*
X251151250Y26250000D02*
X248911250Y26250000D01*
X215432500Y25650000D02*
X213192500Y25650000D01*
X215432500Y25410000D02*
X213192500Y25410000D01*
X215432500Y25530000D02*
X213192500Y25530000D01*
X214312500Y21360000D02*
X214312500Y22010000D01*
X214312500Y26900000D02*
X214312500Y26250000D01*
X215432500Y22010000D02*
X215432500Y26250000D01*
X213192500Y22010000D02*
X215432500Y22010000D01*
X213192500Y26250000D02*
X213192500Y22010000D01*
X215432500Y26250000D02*
X213192500Y26250000D01*
X105101250Y25650000D02*
X102861250Y25650000D01*
X105101250Y25410000D02*
X102861250Y25410000D01*
X105101250Y25530000D02*
X102861250Y25530000D01*
X103981250Y21360000D02*
X103981250Y22010000D01*
X103981250Y26900000D02*
X103981250Y26250000D01*
X105101250Y22010000D02*
X105101250Y26250000D01*
X102861250Y22010000D02*
X105101250Y22010000D01*
X102861250Y26250000D02*
X102861250Y22010000D01*
X105101250Y26250000D02*
X102861250Y26250000D01*
X69382500Y25650000D02*
X67142500Y25650000D01*
X69382500Y25410000D02*
X67142500Y25410000D01*
X69382500Y25530000D02*
X67142500Y25530000D01*
X68262500Y21360000D02*
X68262500Y22010000D01*
X68262500Y26900000D02*
X68262500Y26250000D01*
X69382500Y22010000D02*
X69382500Y26250000D01*
X67142500Y22010000D02*
X69382500Y22010000D01*
X67142500Y26250000D02*
X67142500Y22010000D01*
X69382500Y26250000D02*
X67142500Y26250000D01*
X49538750Y25650000D02*
X47298750Y25650000D01*
X49538750Y25410000D02*
X47298750Y25410000D01*
X49538750Y25530000D02*
X47298750Y25530000D01*
X48418750Y21360000D02*
X48418750Y22010000D01*
X48418750Y26900000D02*
X48418750Y26250000D01*
X49538750Y22010000D02*
X49538750Y26250000D01*
X47298750Y22010000D02*
X49538750Y22010000D01*
X47298750Y26250000D02*
X47298750Y22010000D01*
X49538750Y26250000D02*
X47298750Y26250000D01*
X13820000Y25650000D02*
X11580000Y25650000D01*
X13820000Y25410000D02*
X11580000Y25410000D01*
X13820000Y25530000D02*
X11580000Y25530000D01*
X12700000Y21360000D02*
X12700000Y22010000D01*
X12700000Y26900000D02*
X12700000Y26250000D01*
X13820000Y22010000D02*
X13820000Y26250000D01*
X11580000Y22010000D02*
X13820000Y22010000D01*
X11580000Y26250000D02*
X11580000Y22010000D01*
X13820000Y26250000D02*
X11580000Y26250000D01*
X310682500Y25650000D02*
X308442500Y25650000D01*
X310682500Y25410000D02*
X308442500Y25410000D01*
X310682500Y25530000D02*
X308442500Y25530000D01*
X309562500Y21360000D02*
X309562500Y22010000D01*
X309562500Y26900000D02*
X309562500Y26250000D01*
X310682500Y22010000D02*
X310682500Y26250000D01*
X308442500Y22010000D02*
X310682500Y22010000D01*
X308442500Y26250000D02*
X308442500Y22010000D01*
X310682500Y26250000D02*
X308442500Y26250000D01*
X294807500Y25650000D02*
X292567500Y25650000D01*
X294807500Y25410000D02*
X292567500Y25410000D01*
X294807500Y25530000D02*
X292567500Y25530000D01*
X293687500Y21360000D02*
X293687500Y22010000D01*
X293687500Y26900000D02*
X293687500Y26250000D01*
X294807500Y22010000D02*
X294807500Y26250000D01*
X292567500Y22010000D02*
X294807500Y22010000D01*
X292567500Y26250000D02*
X292567500Y22010000D01*
X294807500Y26250000D02*
X292567500Y26250000D01*
X282901250Y25650000D02*
X280661250Y25650000D01*
X282901250Y25410000D02*
X280661250Y25410000D01*
X282901250Y25530000D02*
X280661250Y25530000D01*
X281781250Y21360000D02*
X281781250Y22010000D01*
X281781250Y26900000D02*
X281781250Y26250000D01*
X282901250Y22010000D02*
X282901250Y26250000D01*
X280661250Y22010000D02*
X282901250Y22010000D01*
X280661250Y26250000D02*
X280661250Y22010000D01*
X282901250Y26250000D02*
X280661250Y26250000D01*
X267026250Y25650000D02*
X264786250Y25650000D01*
X267026250Y25410000D02*
X264786250Y25410000D01*
X267026250Y25530000D02*
X264786250Y25530000D01*
X265906250Y21360000D02*
X265906250Y22010000D01*
X265906250Y26900000D02*
X265906250Y26250000D01*
X267026250Y22010000D02*
X267026250Y26250000D01*
X264786250Y22010000D02*
X267026250Y22010000D01*
X264786250Y26250000D02*
X264786250Y22010000D01*
X267026250Y26250000D02*
X264786250Y26250000D01*
X247182500Y25650000D02*
X244942500Y25650000D01*
X247182500Y25410000D02*
X244942500Y25410000D01*
X247182500Y25530000D02*
X244942500Y25530000D01*
X246062500Y21360000D02*
X246062500Y22010000D01*
X246062500Y26900000D02*
X246062500Y26250000D01*
X247182500Y22010000D02*
X247182500Y26250000D01*
X244942500Y22010000D02*
X247182500Y22010000D01*
X244942500Y26250000D02*
X244942500Y22010000D01*
X247182500Y26250000D02*
X244942500Y26250000D01*
X231307500Y25650000D02*
X229067500Y25650000D01*
X231307500Y25410000D02*
X229067500Y25410000D01*
X231307500Y25530000D02*
X229067500Y25530000D01*
X230187500Y21360000D02*
X230187500Y22010000D01*
X230187500Y26900000D02*
X230187500Y26250000D01*
X231307500Y22010000D02*
X231307500Y26250000D01*
X229067500Y22010000D02*
X231307500Y22010000D01*
X229067500Y26250000D02*
X229067500Y22010000D01*
X231307500Y26250000D02*
X229067500Y26250000D01*
X211463750Y25650000D02*
X209223750Y25650000D01*
X211463750Y25410000D02*
X209223750Y25410000D01*
X211463750Y25530000D02*
X209223750Y25530000D01*
X210343750Y21360000D02*
X210343750Y22010000D01*
X210343750Y26900000D02*
X210343750Y26250000D01*
X211463750Y22010000D02*
X211463750Y26250000D01*
X209223750Y22010000D02*
X211463750Y22010000D01*
X209223750Y26250000D02*
X209223750Y22010000D01*
X211463750Y26250000D02*
X209223750Y26250000D01*
X195588750Y25650000D02*
X193348750Y25650000D01*
X195588750Y25410000D02*
X193348750Y25410000D01*
X195588750Y25530000D02*
X193348750Y25530000D01*
X194468750Y21360000D02*
X194468750Y22010000D01*
X194468750Y26900000D02*
X194468750Y26250000D01*
X195588750Y22010000D02*
X195588750Y26250000D01*
X193348750Y22010000D02*
X195588750Y22010000D01*
X193348750Y26250000D02*
X193348750Y22010000D01*
X195588750Y26250000D02*
X193348750Y26250000D01*
X101132500Y25650000D02*
X98892500Y25650000D01*
X101132500Y25410000D02*
X98892500Y25410000D01*
X101132500Y25530000D02*
X98892500Y25530000D01*
X100012500Y21360000D02*
X100012500Y22010000D01*
X100012500Y26900000D02*
X100012500Y26250000D01*
X101132500Y22010000D02*
X101132500Y26250000D01*
X98892500Y22010000D02*
X101132500Y22010000D01*
X98892500Y26250000D02*
X98892500Y22010000D01*
X101132500Y26250000D02*
X98892500Y26250000D01*
X85257500Y25650000D02*
X83017500Y25650000D01*
X85257500Y25410000D02*
X83017500Y25410000D01*
X85257500Y25530000D02*
X83017500Y25530000D01*
X84137500Y21360000D02*
X84137500Y22010000D01*
X84137500Y26900000D02*
X84137500Y26250000D01*
X85257500Y22010000D02*
X85257500Y26250000D01*
X83017500Y22010000D02*
X85257500Y22010000D01*
X83017500Y26250000D02*
X83017500Y22010000D01*
X85257500Y26250000D02*
X83017500Y26250000D01*
X65413750Y25650000D02*
X63173750Y25650000D01*
X65413750Y25410000D02*
X63173750Y25410000D01*
X65413750Y25530000D02*
X63173750Y25530000D01*
X64293750Y21360000D02*
X64293750Y22010000D01*
X64293750Y26900000D02*
X64293750Y26250000D01*
X65413750Y22010000D02*
X65413750Y26250000D01*
X63173750Y22010000D02*
X65413750Y22010000D01*
X63173750Y26250000D02*
X63173750Y22010000D01*
X65413750Y26250000D02*
X63173750Y26250000D01*
X45570000Y25650000D02*
X43330000Y25650000D01*
X45570000Y25410000D02*
X43330000Y25410000D01*
X45570000Y25530000D02*
X43330000Y25530000D01*
X44450000Y21360000D02*
X44450000Y22010000D01*
X44450000Y26900000D02*
X44450000Y26250000D01*
X45570000Y22010000D02*
X45570000Y26250000D01*
X43330000Y22010000D02*
X45570000Y22010000D01*
X43330000Y26250000D02*
X43330000Y22010000D01*
X45570000Y26250000D02*
X43330000Y26250000D01*
X29695000Y25650000D02*
X27455000Y25650000D01*
X29695000Y25410000D02*
X27455000Y25410000D01*
X29695000Y25530000D02*
X27455000Y25530000D01*
X28575000Y21360000D02*
X28575000Y22010000D01*
X28575000Y26900000D02*
X28575000Y26250000D01*
X29695000Y22010000D02*
X29695000Y26250000D01*
X27455000Y22010000D02*
X29695000Y22010000D01*
X27455000Y26250000D02*
X27455000Y22010000D01*
X29695000Y26250000D02*
X27455000Y26250000D01*
X9851250Y25650000D02*
X7611250Y25650000D01*
X9851250Y25410000D02*
X7611250Y25410000D01*
X9851250Y25530000D02*
X7611250Y25530000D01*
X8731250Y21360000D02*
X8731250Y22010000D01*
X8731250Y26900000D02*
X8731250Y26250000D01*
X9851250Y22010000D02*
X9851250Y26250000D01*
X7611250Y22010000D02*
X9851250Y22010000D01*
X7611250Y26250000D02*
X7611250Y22010000D01*
X9851250Y26250000D02*
X7611250Y26250000D01*
X306713750Y25650000D02*
X304473750Y25650000D01*
X306713750Y25410000D02*
X304473750Y25410000D01*
X306713750Y25530000D02*
X304473750Y25530000D01*
X305593750Y21360000D02*
X305593750Y22010000D01*
X305593750Y26900000D02*
X305593750Y26250000D01*
X306713750Y22010000D02*
X306713750Y26250000D01*
X304473750Y22010000D02*
X306713750Y22010000D01*
X304473750Y26250000D02*
X304473750Y22010000D01*
X306713750Y26250000D02*
X304473750Y26250000D01*
X278932500Y25650000D02*
X276692500Y25650000D01*
X278932500Y25410000D02*
X276692500Y25410000D01*
X278932500Y25530000D02*
X276692500Y25530000D01*
X277812500Y21360000D02*
X277812500Y22010000D01*
X277812500Y26900000D02*
X277812500Y26250000D01*
X278932500Y22010000D02*
X278932500Y26250000D01*
X276692500Y22010000D02*
X278932500Y22010000D01*
X276692500Y26250000D02*
X276692500Y22010000D01*
X278932500Y26250000D02*
X276692500Y26250000D01*
X263057500Y25650000D02*
X260817500Y25650000D01*
X263057500Y25410000D02*
X260817500Y25410000D01*
X263057500Y25530000D02*
X260817500Y25530000D01*
X261937500Y21360000D02*
X261937500Y22010000D01*
X261937500Y26900000D02*
X261937500Y26250000D01*
X263057500Y22010000D02*
X263057500Y26250000D01*
X260817500Y22010000D02*
X263057500Y22010000D01*
X260817500Y26250000D02*
X260817500Y22010000D01*
X263057500Y26250000D02*
X260817500Y26250000D01*
X243213750Y25650000D02*
X240973750Y25650000D01*
X243213750Y25410000D02*
X240973750Y25410000D01*
X243213750Y25530000D02*
X240973750Y25530000D01*
X242093750Y21360000D02*
X242093750Y22010000D01*
X242093750Y26900000D02*
X242093750Y26250000D01*
X243213750Y22010000D02*
X243213750Y26250000D01*
X240973750Y22010000D02*
X243213750Y22010000D01*
X240973750Y26250000D02*
X240973750Y22010000D01*
X243213750Y26250000D02*
X240973750Y26250000D01*
X227338750Y25650000D02*
X225098750Y25650000D01*
X227338750Y25410000D02*
X225098750Y25410000D01*
X227338750Y25530000D02*
X225098750Y25530000D01*
X226218750Y21360000D02*
X226218750Y22010000D01*
X226218750Y26900000D02*
X226218750Y26250000D01*
X227338750Y22010000D02*
X227338750Y26250000D01*
X225098750Y22010000D02*
X227338750Y22010000D01*
X225098750Y26250000D02*
X225098750Y22010000D01*
X227338750Y26250000D02*
X225098750Y26250000D01*
X207495000Y25650000D02*
X205255000Y25650000D01*
X207495000Y25410000D02*
X205255000Y25410000D01*
X207495000Y25530000D02*
X205255000Y25530000D01*
X206375000Y21360000D02*
X206375000Y22010000D01*
X206375000Y26900000D02*
X206375000Y26250000D01*
X207495000Y22010000D02*
X207495000Y26250000D01*
X205255000Y22010000D02*
X207495000Y22010000D01*
X205255000Y26250000D02*
X205255000Y22010000D01*
X207495000Y26250000D02*
X205255000Y26250000D01*
X191620000Y25650000D02*
X189380000Y25650000D01*
X191620000Y25410000D02*
X189380000Y25410000D01*
X191620000Y25530000D02*
X189380000Y25530000D01*
X190500000Y21360000D02*
X190500000Y22010000D01*
X190500000Y26900000D02*
X190500000Y26250000D01*
X191620000Y22010000D02*
X191620000Y26250000D01*
X189380000Y22010000D02*
X191620000Y22010000D01*
X189380000Y26250000D02*
X189380000Y22010000D01*
X191620000Y26250000D02*
X189380000Y26250000D01*
X97163750Y25650000D02*
X94923750Y25650000D01*
X97163750Y25410000D02*
X94923750Y25410000D01*
X97163750Y25530000D02*
X94923750Y25530000D01*
X96043750Y21360000D02*
X96043750Y22010000D01*
X96043750Y26900000D02*
X96043750Y26250000D01*
X97163750Y22010000D02*
X97163750Y26250000D01*
X94923750Y22010000D02*
X97163750Y22010000D01*
X94923750Y26250000D02*
X94923750Y22010000D01*
X97163750Y26250000D02*
X94923750Y26250000D01*
X81288750Y25650000D02*
X79048750Y25650000D01*
X81288750Y25410000D02*
X79048750Y25410000D01*
X81288750Y25530000D02*
X79048750Y25530000D01*
X80168750Y21360000D02*
X80168750Y22010000D01*
X80168750Y26900000D02*
X80168750Y26250000D01*
X81288750Y22010000D02*
X81288750Y26250000D01*
X79048750Y22010000D02*
X81288750Y22010000D01*
X79048750Y26250000D02*
X79048750Y22010000D01*
X81288750Y26250000D02*
X79048750Y26250000D01*
X61445000Y25650000D02*
X59205000Y25650000D01*
X61445000Y25410000D02*
X59205000Y25410000D01*
X61445000Y25530000D02*
X59205000Y25530000D01*
X60325000Y21360000D02*
X60325000Y22010000D01*
X60325000Y26900000D02*
X60325000Y26250000D01*
X61445000Y22010000D02*
X61445000Y26250000D01*
X59205000Y22010000D02*
X61445000Y22010000D01*
X59205000Y26250000D02*
X59205000Y22010000D01*
X61445000Y26250000D02*
X59205000Y26250000D01*
X41601250Y25650000D02*
X39361250Y25650000D01*
X41601250Y25410000D02*
X39361250Y25410000D01*
X41601250Y25530000D02*
X39361250Y25530000D01*
X40481250Y21360000D02*
X40481250Y22010000D01*
X40481250Y26900000D02*
X40481250Y26250000D01*
X41601250Y22010000D02*
X41601250Y26250000D01*
X39361250Y22010000D02*
X41601250Y22010000D01*
X39361250Y26250000D02*
X39361250Y22010000D01*
X41601250Y26250000D02*
X39361250Y26250000D01*
X25726250Y25650000D02*
X23486250Y25650000D01*
X25726250Y25410000D02*
X23486250Y25410000D01*
X25726250Y25530000D02*
X23486250Y25530000D01*
X24606250Y21360000D02*
X24606250Y22010000D01*
X24606250Y26900000D02*
X24606250Y26250000D01*
X25726250Y22010000D02*
X25726250Y26250000D01*
X23486250Y22010000D02*
X25726250Y22010000D01*
X23486250Y26250000D02*
X23486250Y22010000D01*
X25726250Y26250000D02*
X23486250Y26250000D01*
X5882500Y25650000D02*
X3642500Y25650000D01*
X5882500Y25410000D02*
X3642500Y25410000D01*
X5882500Y25530000D02*
X3642500Y25530000D01*
X4762500Y21360000D02*
X4762500Y22010000D01*
X4762500Y26900000D02*
X4762500Y26250000D01*
X5882500Y22010000D02*
X5882500Y26250000D01*
X3642500Y22010000D02*
X5882500Y22010000D01*
X3642500Y26250000D02*
X3642500Y22010000D01*
X5882500Y26250000D02*
X3642500Y26250000D01*
X302745000Y25650000D02*
X300505000Y25650000D01*
X302745000Y25410000D02*
X300505000Y25410000D01*
X302745000Y25530000D02*
X300505000Y25530000D01*
X301625000Y21360000D02*
X301625000Y22010000D01*
X301625000Y26900000D02*
X301625000Y26250000D01*
X302745000Y22010000D02*
X302745000Y26250000D01*
X300505000Y22010000D02*
X302745000Y22010000D01*
X300505000Y26250000D02*
X300505000Y22010000D01*
X302745000Y26250000D02*
X300505000Y26250000D01*
X290838750Y25650000D02*
X288598750Y25650000D01*
X290838750Y25410000D02*
X288598750Y25410000D01*
X290838750Y25530000D02*
X288598750Y25530000D01*
X289718750Y21360000D02*
X289718750Y22010000D01*
X289718750Y26900000D02*
X289718750Y26250000D01*
X290838750Y22010000D02*
X290838750Y26250000D01*
X288598750Y22010000D02*
X290838750Y22010000D01*
X288598750Y26250000D02*
X288598750Y22010000D01*
X290838750Y26250000D02*
X288598750Y26250000D01*
X274963750Y25650000D02*
X272723750Y25650000D01*
X274963750Y25410000D02*
X272723750Y25410000D01*
X274963750Y25530000D02*
X272723750Y25530000D01*
X273843750Y21360000D02*
X273843750Y22010000D01*
X273843750Y26900000D02*
X273843750Y26250000D01*
X274963750Y22010000D02*
X274963750Y26250000D01*
X272723750Y22010000D02*
X274963750Y22010000D01*
X272723750Y26250000D02*
X272723750Y22010000D01*
X274963750Y26250000D02*
X272723750Y26250000D01*
X259088750Y25650000D02*
X256848750Y25650000D01*
X259088750Y25410000D02*
X256848750Y25410000D01*
X259088750Y25530000D02*
X256848750Y25530000D01*
X257968750Y21360000D02*
X257968750Y22010000D01*
X257968750Y26900000D02*
X257968750Y26250000D01*
X259088750Y22010000D02*
X259088750Y26250000D01*
X256848750Y22010000D02*
X259088750Y22010000D01*
X256848750Y26250000D02*
X256848750Y22010000D01*
X259088750Y26250000D02*
X256848750Y26250000D01*
X239245000Y25650000D02*
X237005000Y25650000D01*
X239245000Y25410000D02*
X237005000Y25410000D01*
X239245000Y25530000D02*
X237005000Y25530000D01*
X238125000Y21360000D02*
X238125000Y22010000D01*
X238125000Y26900000D02*
X238125000Y26250000D01*
X239245000Y22010000D02*
X239245000Y26250000D01*
X237005000Y22010000D02*
X239245000Y22010000D01*
X237005000Y26250000D02*
X237005000Y22010000D01*
X239245000Y26250000D02*
X237005000Y26250000D01*
X223370000Y25650000D02*
X221130000Y25650000D01*
X223370000Y25410000D02*
X221130000Y25410000D01*
X223370000Y25530000D02*
X221130000Y25530000D01*
X222250000Y21360000D02*
X222250000Y22010000D01*
X222250000Y26900000D02*
X222250000Y26250000D01*
X223370000Y22010000D02*
X223370000Y26250000D01*
X221130000Y22010000D02*
X223370000Y22010000D01*
X221130000Y26250000D02*
X221130000Y22010000D01*
X223370000Y26250000D02*
X221130000Y26250000D01*
X203526250Y25650000D02*
X201286250Y25650000D01*
X203526250Y25410000D02*
X201286250Y25410000D01*
X203526250Y25530000D02*
X201286250Y25530000D01*
X202406250Y21360000D02*
X202406250Y22010000D01*
X202406250Y26900000D02*
X202406250Y26250000D01*
X203526250Y22010000D02*
X203526250Y26250000D01*
X201286250Y22010000D02*
X203526250Y22010000D01*
X201286250Y26250000D02*
X201286250Y22010000D01*
X203526250Y26250000D02*
X201286250Y26250000D01*
X187651250Y25650000D02*
X185411250Y25650000D01*
X187651250Y25410000D02*
X185411250Y25410000D01*
X187651250Y25530000D02*
X185411250Y25530000D01*
X186531250Y21360000D02*
X186531250Y22010000D01*
X186531250Y26900000D02*
X186531250Y26250000D01*
X187651250Y22010000D02*
X187651250Y26250000D01*
X185411250Y22010000D02*
X187651250Y22010000D01*
X185411250Y26250000D02*
X185411250Y22010000D01*
X187651250Y26250000D02*
X185411250Y26250000D01*
X93195000Y25650000D02*
X90955000Y25650000D01*
X93195000Y25410000D02*
X90955000Y25410000D01*
X93195000Y25530000D02*
X90955000Y25530000D01*
X92075000Y21360000D02*
X92075000Y22010000D01*
X92075000Y26900000D02*
X92075000Y26250000D01*
X93195000Y22010000D02*
X93195000Y26250000D01*
X90955000Y22010000D02*
X93195000Y22010000D01*
X90955000Y26250000D02*
X90955000Y22010000D01*
X93195000Y26250000D02*
X90955000Y26250000D01*
X77320000Y25650000D02*
X75080000Y25650000D01*
X77320000Y25410000D02*
X75080000Y25410000D01*
X77320000Y25530000D02*
X75080000Y25530000D01*
X76200000Y21360000D02*
X76200000Y22010000D01*
X76200000Y26900000D02*
X76200000Y26250000D01*
X77320000Y22010000D02*
X77320000Y26250000D01*
X75080000Y22010000D02*
X77320000Y22010000D01*
X75080000Y26250000D02*
X75080000Y22010000D01*
X77320000Y26250000D02*
X75080000Y26250000D01*
X57476250Y25650000D02*
X55236250Y25650000D01*
X57476250Y25410000D02*
X55236250Y25410000D01*
X57476250Y25530000D02*
X55236250Y25530000D01*
X56356250Y21360000D02*
X56356250Y22010000D01*
X56356250Y26900000D02*
X56356250Y26250000D01*
X57476250Y22010000D02*
X57476250Y26250000D01*
X55236250Y22010000D02*
X57476250Y22010000D01*
X55236250Y26250000D02*
X55236250Y22010000D01*
X57476250Y26250000D02*
X55236250Y26250000D01*
X37632500Y25650000D02*
X35392500Y25650000D01*
X37632500Y25410000D02*
X35392500Y25410000D01*
X37632500Y25530000D02*
X35392500Y25530000D01*
X36512500Y21360000D02*
X36512500Y22010000D01*
X36512500Y26900000D02*
X36512500Y26250000D01*
X37632500Y22010000D02*
X37632500Y26250000D01*
X35392500Y22010000D02*
X37632500Y22010000D01*
X35392500Y26250000D02*
X35392500Y22010000D01*
X37632500Y26250000D02*
X35392500Y26250000D01*
X21757500Y25650000D02*
X19517500Y25650000D01*
X21757500Y25410000D02*
X19517500Y25410000D01*
X21757500Y25530000D02*
X19517500Y25530000D01*
X20637500Y21360000D02*
X20637500Y22010000D01*
X20637500Y26900000D02*
X20637500Y26250000D01*
X21757500Y22010000D02*
X21757500Y26250000D01*
X19517500Y22010000D02*
X21757500Y22010000D01*
X19517500Y26250000D02*
X19517500Y22010000D01*
X21757500Y26250000D02*
X19517500Y26250000D01*
X1913750Y25650000D02*
X-326250Y25650000D01*
X1913750Y25410000D02*
X-326250Y25410000D01*
X1913750Y25530000D02*
X-326250Y25530000D01*
X793750Y21360000D02*
X793750Y22010000D01*
X793750Y26900000D02*
X793750Y26250000D01*
X1913750Y22010000D02*
X1913750Y26250000D01*
X-326250Y22010000D02*
X1913750Y22010000D01*
X-326250Y26250000D02*
X-326250Y22010000D01*
X1913750Y26250000D02*
X-326250Y26250000D01*
X-9992500Y25650000D02*
X-12232500Y25650000D01*
X-9992500Y25410000D02*
X-12232500Y25410000D01*
X-9992500Y25530000D02*
X-12232500Y25530000D01*
X-11112500Y21360000D02*
X-11112500Y22010000D01*
X-11112500Y26900000D02*
X-11112500Y26250000D01*
X-9992500Y22010000D02*
X-9992500Y26250000D01*
X-12232500Y22010000D02*
X-9992500Y22010000D01*
X-12232500Y26250000D02*
X-12232500Y22010000D01*
X-9992500Y26250000D02*
X-12232500Y26250000D01*
X298776250Y25650000D02*
X296536250Y25650000D01*
X298776250Y25410000D02*
X296536250Y25410000D01*
X298776250Y25530000D02*
X296536250Y25530000D01*
X297656250Y21360000D02*
X297656250Y22010000D01*
X297656250Y26900000D02*
X297656250Y26250000D01*
X298776250Y22010000D02*
X298776250Y26250000D01*
X296536250Y22010000D02*
X298776250Y22010000D01*
X296536250Y26250000D02*
X296536250Y22010000D01*
X298776250Y26250000D02*
X296536250Y26250000D01*
X286870000Y25650000D02*
X284630000Y25650000D01*
X286870000Y25410000D02*
X284630000Y25410000D01*
X286870000Y25530000D02*
X284630000Y25530000D01*
X285750000Y21360000D02*
X285750000Y22010000D01*
X285750000Y26900000D02*
X285750000Y26250000D01*
X286870000Y22010000D02*
X286870000Y26250000D01*
X284630000Y22010000D02*
X286870000Y22010000D01*
X284630000Y26250000D02*
X284630000Y22010000D01*
X286870000Y26250000D02*
X284630000Y26250000D01*
X270995000Y25650000D02*
X268755000Y25650000D01*
X270995000Y25410000D02*
X268755000Y25410000D01*
X270995000Y25530000D02*
X268755000Y25530000D01*
X269875000Y21360000D02*
X269875000Y22010000D01*
X269875000Y26900000D02*
X269875000Y26250000D01*
X270995000Y22010000D02*
X270995000Y26250000D01*
X268755000Y22010000D02*
X270995000Y22010000D01*
X268755000Y26250000D02*
X268755000Y22010000D01*
X270995000Y26250000D02*
X268755000Y26250000D01*
X255120000Y25650000D02*
X252880000Y25650000D01*
X255120000Y25410000D02*
X252880000Y25410000D01*
X255120000Y25530000D02*
X252880000Y25530000D01*
X254000000Y21360000D02*
X254000000Y22010000D01*
X254000000Y26900000D02*
X254000000Y26250000D01*
X255120000Y22010000D02*
X255120000Y26250000D01*
X252880000Y22010000D02*
X255120000Y22010000D01*
X252880000Y26250000D02*
X252880000Y22010000D01*
X255120000Y26250000D02*
X252880000Y26250000D01*
X235276250Y25650000D02*
X233036250Y25650000D01*
X235276250Y25410000D02*
X233036250Y25410000D01*
X235276250Y25530000D02*
X233036250Y25530000D01*
X234156250Y21360000D02*
X234156250Y22010000D01*
X234156250Y26900000D02*
X234156250Y26250000D01*
X235276250Y22010000D02*
X235276250Y26250000D01*
X233036250Y22010000D02*
X235276250Y22010000D01*
X233036250Y26250000D02*
X233036250Y22010000D01*
X235276250Y26250000D02*
X233036250Y26250000D01*
X219401250Y25650000D02*
X217161250Y25650000D01*
X219401250Y25410000D02*
X217161250Y25410000D01*
X219401250Y25530000D02*
X217161250Y25530000D01*
X218281250Y21360000D02*
X218281250Y22010000D01*
X218281250Y26900000D02*
X218281250Y26250000D01*
X219401250Y22010000D02*
X219401250Y26250000D01*
X217161250Y22010000D02*
X219401250Y22010000D01*
X217161250Y26250000D02*
X217161250Y22010000D01*
X219401250Y26250000D02*
X217161250Y26250000D01*
X199557500Y25650000D02*
X197317500Y25650000D01*
X199557500Y25410000D02*
X197317500Y25410000D01*
X199557500Y25530000D02*
X197317500Y25530000D01*
X198437500Y21360000D02*
X198437500Y22010000D01*
X198437500Y26900000D02*
X198437500Y26250000D01*
X199557500Y22010000D02*
X199557500Y26250000D01*
X197317500Y22010000D02*
X199557500Y22010000D01*
X197317500Y26250000D02*
X197317500Y22010000D01*
X199557500Y26250000D02*
X197317500Y26250000D01*
X117007500Y25650000D02*
X114767500Y25650000D01*
X117007500Y25410000D02*
X114767500Y25410000D01*
X117007500Y25530000D02*
X114767500Y25530000D01*
X115887500Y21360000D02*
X115887500Y22010000D01*
X115887500Y26900000D02*
X115887500Y26250000D01*
X117007500Y22010000D02*
X117007500Y26250000D01*
X114767500Y22010000D02*
X117007500Y22010000D01*
X114767500Y26250000D02*
X114767500Y22010000D01*
X117007500Y26250000D02*
X114767500Y26250000D01*
X113038750Y25650000D02*
X110798750Y25650000D01*
X113038750Y25410000D02*
X110798750Y25410000D01*
X113038750Y25530000D02*
X110798750Y25530000D01*
X111918750Y21360000D02*
X111918750Y22010000D01*
X111918750Y26900000D02*
X111918750Y26250000D01*
X113038750Y22010000D02*
X113038750Y26250000D01*
X110798750Y22010000D02*
X113038750Y22010000D01*
X110798750Y26250000D02*
X110798750Y22010000D01*
X113038750Y26250000D02*
X110798750Y26250000D01*
X109070000Y25650000D02*
X106830000Y25650000D01*
X109070000Y25410000D02*
X106830000Y25410000D01*
X109070000Y25530000D02*
X106830000Y25530000D01*
X107950000Y21360000D02*
X107950000Y22010000D01*
X107950000Y26900000D02*
X107950000Y26250000D01*
X109070000Y22010000D02*
X109070000Y26250000D01*
X106830000Y22010000D02*
X109070000Y22010000D01*
X106830000Y26250000D02*
X106830000Y22010000D01*
X109070000Y26250000D02*
X106830000Y26250000D01*
X89226250Y25650000D02*
X86986250Y25650000D01*
X89226250Y25410000D02*
X86986250Y25410000D01*
X89226250Y25530000D02*
X86986250Y25530000D01*
X88106250Y21360000D02*
X88106250Y22010000D01*
X88106250Y26900000D02*
X88106250Y26250000D01*
X89226250Y22010000D02*
X89226250Y26250000D01*
X86986250Y22010000D02*
X89226250Y22010000D01*
X86986250Y26250000D02*
X86986250Y22010000D01*
X89226250Y26250000D02*
X86986250Y26250000D01*
X73351250Y25650000D02*
X71111250Y25650000D01*
X73351250Y25410000D02*
X71111250Y25410000D01*
X73351250Y25530000D02*
X71111250Y25530000D01*
X72231250Y21360000D02*
X72231250Y22010000D01*
X72231250Y26900000D02*
X72231250Y26250000D01*
X73351250Y22010000D02*
X73351250Y26250000D01*
X71111250Y22010000D02*
X73351250Y22010000D01*
X71111250Y26250000D02*
X71111250Y22010000D01*
X73351250Y26250000D02*
X71111250Y26250000D01*
X53507500Y25650000D02*
X51267500Y25650000D01*
X53507500Y25410000D02*
X51267500Y25410000D01*
X53507500Y25530000D02*
X51267500Y25530000D01*
X52387500Y21360000D02*
X52387500Y22010000D01*
X52387500Y26900000D02*
X52387500Y26250000D01*
X53507500Y22010000D02*
X53507500Y26250000D01*
X51267500Y22010000D02*
X53507500Y22010000D01*
X51267500Y26250000D02*
X51267500Y22010000D01*
X53507500Y26250000D02*
X51267500Y26250000D01*
X33663750Y25650000D02*
X31423750Y25650000D01*
X33663750Y25410000D02*
X31423750Y25410000D01*
X33663750Y25530000D02*
X31423750Y25530000D01*
X32543750Y21360000D02*
X32543750Y22010000D01*
X32543750Y26900000D02*
X32543750Y26250000D01*
X33663750Y22010000D02*
X33663750Y26250000D01*
X31423750Y22010000D02*
X33663750Y22010000D01*
X31423750Y26250000D02*
X31423750Y22010000D01*
X33663750Y26250000D02*
X31423750Y26250000D01*
X17788750Y25650000D02*
X15548750Y25650000D01*
X17788750Y25410000D02*
X15548750Y25410000D01*
X17788750Y25530000D02*
X15548750Y25530000D01*
X16668750Y21360000D02*
X16668750Y22010000D01*
X16668750Y26900000D02*
X16668750Y26250000D01*
X17788750Y22010000D02*
X17788750Y26250000D01*
X15548750Y22010000D02*
X17788750Y22010000D01*
X15548750Y26250000D02*
X15548750Y22010000D01*
X17788750Y26250000D02*
X15548750Y26250000D01*
X-2055000Y25650000D02*
X-4295000Y25650000D01*
X-2055000Y25410000D02*
X-4295000Y25410000D01*
X-2055000Y25530000D02*
X-4295000Y25530000D01*
X-3175000Y21360000D02*
X-3175000Y22010000D01*
X-3175000Y26900000D02*
X-3175000Y26250000D01*
X-2055000Y22010000D02*
X-2055000Y26250000D01*
X-4295000Y22010000D02*
X-2055000Y22010000D01*
X-4295000Y26250000D02*
X-4295000Y22010000D01*
X-2055000Y26250000D02*
X-4295000Y26250000D01*
X179750625Y23718125D02*
X173350625Y23718125D01*
X179750625Y18668125D02*
X173350625Y18668125D01*
X173350625Y23718125D02*
G75*
G03*
X173350625Y18668125I0J-2525000D01*
G01*
X179750625Y23718125D02*
G75*
G02*
X179750625Y18668125I0J-2525000D01*
G01*
X121043750Y28027500D02*
X121043750Y26527500D01*
X122293750Y24027500D02*
X126793750Y24027500D01*
X128043750Y26527500D02*
X128043750Y28027500D01*
X126793750Y30527500D02*
X122293750Y30527500D01*
X179331250Y30527500D02*
X174831250Y30527500D01*
X180581250Y26527500D02*
X180581250Y28027500D01*
X174831250Y24027500D02*
X179331250Y24027500D01*
X173581250Y28027500D02*
X173581250Y26527500D01*
D14*
X161917083Y21137619D02*
X161583750Y21613809D01*
X161345654Y21137619D02*
X161345654Y22137619D01*
X161726607Y22137619D01*
X161821845Y22090000D01*
X161869464Y22042380D01*
X161917083Y21947142D01*
X161917083Y21804285D01*
X161869464Y21709047D01*
X161821845Y21661428D01*
X161726607Y21613809D01*
X161345654Y21613809D01*
X162774226Y22137619D02*
X162583750Y22137619D01*
X162488511Y22090000D01*
X162440892Y22042380D01*
X162345654Y21899523D01*
X162298035Y21709047D01*
X162298035Y21328095D01*
X162345654Y21232857D01*
X162393273Y21185238D01*
X162488511Y21137619D01*
X162678988Y21137619D01*
X162774226Y21185238D01*
X162821845Y21232857D01*
X162869464Y21328095D01*
X162869464Y21566190D01*
X162821845Y21661428D01*
X162774226Y21709047D01*
X162678988Y21756666D01*
X162488511Y21756666D01*
X162393273Y21709047D01*
X162345654Y21661428D01*
X162298035Y21566190D01*
X140962083Y23915744D02*
X140628750Y24391934D01*
X140390654Y23915744D02*
X140390654Y24915744D01*
X140771607Y24915744D01*
X140866845Y24868125D01*
X140914464Y24820505D01*
X140962083Y24725267D01*
X140962083Y24582410D01*
X140914464Y24487172D01*
X140866845Y24439553D01*
X140771607Y24391934D01*
X140390654Y24391934D01*
X141866845Y24915744D02*
X141390654Y24915744D01*
X141343035Y24439553D01*
X141390654Y24487172D01*
X141485892Y24534791D01*
X141723988Y24534791D01*
X141819226Y24487172D01*
X141866845Y24439553D01*
X141914464Y24344315D01*
X141914464Y24106220D01*
X141866845Y24010982D01*
X141819226Y23963363D01*
X141723988Y23915744D01*
X141485892Y23915744D01*
X141390654Y23963363D01*
X141343035Y24010982D01*
X140882708Y19153244D02*
X140549375Y19629434D01*
X140311279Y19153244D02*
X140311279Y20153244D01*
X140692232Y20153244D01*
X140787470Y20105625D01*
X140835089Y20058005D01*
X140882708Y19962767D01*
X140882708Y19819910D01*
X140835089Y19724672D01*
X140787470Y19677053D01*
X140692232Y19629434D01*
X140311279Y19629434D01*
X141739851Y19819910D02*
X141739851Y19153244D01*
X141501755Y20200863D02*
X141263660Y19486577D01*
X141882708Y19486577D01*
X140882708Y21534494D02*
X140549375Y22010684D01*
X140311279Y21534494D02*
X140311279Y22534494D01*
X140692232Y22534494D01*
X140787470Y22486875D01*
X140835089Y22439255D01*
X140882708Y22344017D01*
X140882708Y22201160D01*
X140835089Y22105922D01*
X140787470Y22058303D01*
X140692232Y22010684D01*
X140311279Y22010684D01*
X141216041Y22534494D02*
X141835089Y22534494D01*
X141501755Y22153541D01*
X141644613Y22153541D01*
X141739851Y22105922D01*
X141787470Y22058303D01*
X141835089Y21963065D01*
X141835089Y21724970D01*
X141787470Y21629732D01*
X141739851Y21582113D01*
X141644613Y21534494D01*
X141358898Y21534494D01*
X141263660Y21582113D01*
X141216041Y21629732D01*
X161917083Y18756369D02*
X161583750Y19232559D01*
X161345654Y18756369D02*
X161345654Y19756369D01*
X161726607Y19756369D01*
X161821845Y19708750D01*
X161869464Y19661130D01*
X161917083Y19565892D01*
X161917083Y19423035D01*
X161869464Y19327797D01*
X161821845Y19280178D01*
X161726607Y19232559D01*
X161345654Y19232559D01*
X162298035Y19661130D02*
X162345654Y19708750D01*
X162440892Y19756369D01*
X162678988Y19756369D01*
X162774226Y19708750D01*
X162821845Y19661130D01*
X162869464Y19565892D01*
X162869464Y19470654D01*
X162821845Y19327797D01*
X162250416Y18756369D01*
X162869464Y18756369D01*
X130643333Y21534494D02*
X130310000Y22010684D01*
X130071904Y21534494D02*
X130071904Y22534494D01*
X130452857Y22534494D01*
X130548095Y22486875D01*
X130595714Y22439255D01*
X130643333Y22344017D01*
X130643333Y22201160D01*
X130595714Y22105922D01*
X130548095Y22058303D01*
X130452857Y22010684D01*
X130071904Y22010684D01*
X131595714Y21534494D02*
X131024285Y21534494D01*
X131310000Y21534494D02*
X131310000Y22534494D01*
X131214761Y22391636D01*
X131119523Y22296398D01*
X131024285Y22248779D01*
X158556696Y21534791D02*
X158556696Y21201458D01*
X159080505Y21201458D02*
X158080505Y21201458D01*
X158080505Y21677648D01*
X159080505Y22582410D02*
X159080505Y22010982D01*
X159080505Y22296696D02*
X158080505Y22296696D01*
X158223363Y22201458D01*
X158318601Y22106220D01*
X158366220Y22010982D01*
X169822767Y21304583D02*
X169870386Y21256964D01*
X169918005Y21114107D01*
X169918005Y21018869D01*
X169870386Y20876011D01*
X169775148Y20780773D01*
X169679910Y20733154D01*
X169489434Y20685535D01*
X169346577Y20685535D01*
X169156101Y20733154D01*
X169060863Y20780773D01*
X168965625Y20876011D01*
X168918005Y21018869D01*
X168918005Y21114107D01*
X168965625Y21256964D01*
X169013244Y21304583D01*
X169013244Y21685535D02*
X168965625Y21733154D01*
X168918005Y21828392D01*
X168918005Y22066488D01*
X168965625Y22161726D01*
X169013244Y22209345D01*
X169108482Y22256964D01*
X169203720Y22256964D01*
X169346577Y22209345D01*
X169918005Y21637916D01*
X169918005Y22256964D01*
X184110267Y21820208D02*
X184157886Y21772589D01*
X184205505Y21629732D01*
X184205505Y21534494D01*
X184157886Y21391636D01*
X184062648Y21296398D01*
X183967410Y21248779D01*
X183776934Y21201160D01*
X183634077Y21201160D01*
X183443601Y21248779D01*
X183348363Y21296398D01*
X183253125Y21391636D01*
X183205505Y21534494D01*
X183205505Y21629732D01*
X183253125Y21772589D01*
X183300744Y21820208D01*
X184205505Y22772589D02*
X184205505Y22201160D01*
X184205505Y22486875D02*
X183205505Y22486875D01*
X183348363Y22391636D01*
X183443601Y22296398D01*
X183491220Y22201160D01*
X149471279Y30471994D02*
X149471279Y29662470D01*
X149518898Y29567232D01*
X149566517Y29519613D01*
X149661755Y29471994D01*
X149852232Y29471994D01*
X149947470Y29519613D01*
X149995089Y29567232D01*
X150042708Y29662470D01*
X150042708Y30471994D01*
X150471279Y29519613D02*
X150614136Y29471994D01*
X150852232Y29471994D01*
X150947470Y29519613D01*
X150995089Y29567232D01*
X151042708Y29662470D01*
X151042708Y29757708D01*
X150995089Y29852946D01*
X150947470Y29900565D01*
X150852232Y29948184D01*
X150661755Y29995803D01*
X150566517Y30043422D01*
X150518898Y30091041D01*
X150471279Y30186279D01*
X150471279Y30281517D01*
X150518898Y30376755D01*
X150566517Y30424375D01*
X150661755Y30471994D01*
X150899851Y30471994D01*
X151042708Y30424375D01*
X151804613Y29995803D02*
X151947470Y29948184D01*
X151995089Y29900565D01*
X152042708Y29805327D01*
X152042708Y29662470D01*
X151995089Y29567232D01*
X151947470Y29519613D01*
X151852232Y29471994D01*
X151471279Y29471994D01*
X151471279Y30471994D01*
X151804613Y30471994D01*
X151899851Y30424375D01*
X151947470Y30376755D01*
X151995089Y30281517D01*
X151995089Y30186279D01*
X151947470Y30091041D01*
X151899851Y30043422D01*
X151804613Y29995803D01*
X151471279Y29995803D01*
X152995089Y29471994D02*
X152423660Y29471994D01*
X152709375Y29471994D02*
X152709375Y30471994D01*
X152614136Y30329136D01*
X152518898Y30233898D01*
X152423660Y30186279D01*
X140152529Y29075119D02*
X140152529Y30075119D01*
X140390625Y30075119D01*
X140533482Y30027500D01*
X140628720Y29932261D01*
X140676339Y29837023D01*
X140723958Y29646547D01*
X140723958Y29503690D01*
X140676339Y29313214D01*
X140628720Y29217976D01*
X140533482Y29122738D01*
X140390625Y29075119D01*
X140152529Y29075119D01*
X141057291Y30075119D02*
X141676339Y30075119D01*
X141343005Y29694166D01*
X141485863Y29694166D01*
X141581101Y29646547D01*
X141628720Y29598928D01*
X141676339Y29503690D01*
X141676339Y29265595D01*
X141628720Y29170357D01*
X141581101Y29122738D01*
X141485863Y29075119D01*
X141200148Y29075119D01*
X141104910Y29122738D01*
X141057291Y29170357D01*
X140152529Y26296994D02*
X140152529Y27296994D01*
X140390625Y27296994D01*
X140533482Y27249375D01*
X140628720Y27154136D01*
X140676339Y27058898D01*
X140723958Y26868422D01*
X140723958Y26725565D01*
X140676339Y26535089D01*
X140628720Y26439851D01*
X140533482Y26344613D01*
X140390625Y26296994D01*
X140152529Y26296994D01*
X141104910Y27201755D02*
X141152529Y27249375D01*
X141247767Y27296994D01*
X141485863Y27296994D01*
X141581101Y27249375D01*
X141628720Y27201755D01*
X141676339Y27106517D01*
X141676339Y27011279D01*
X141628720Y26868422D01*
X141057291Y26296994D01*
X141676339Y26296994D01*
X129436904Y27884494D02*
X129436904Y28884494D01*
X129675000Y28884494D01*
X129817857Y28836875D01*
X129913095Y28741636D01*
X129960714Y28646398D01*
X130008333Y28455922D01*
X130008333Y28313065D01*
X129960714Y28122589D01*
X129913095Y28027351D01*
X129817857Y27932113D01*
X129675000Y27884494D01*
X129436904Y27884494D01*
X130960714Y27884494D02*
X130389285Y27884494D01*
X130675000Y27884494D02*
X130675000Y28884494D01*
X130579761Y28741636D01*
X130484523Y28646398D01*
X130389285Y28598779D01*
X159377083Y25201607D02*
X159329464Y25153988D01*
X159186607Y25106369D01*
X159091369Y25106369D01*
X158948511Y25153988D01*
X158853273Y25249226D01*
X158805654Y25344464D01*
X158758035Y25534940D01*
X158758035Y25677797D01*
X158805654Y25868273D01*
X158853273Y25963511D01*
X158948511Y26058750D01*
X159091369Y26106369D01*
X159186607Y26106369D01*
X159329464Y26058750D01*
X159377083Y26011130D01*
X160281845Y26106369D02*
X159805654Y26106369D01*
X159758035Y25630178D01*
X159805654Y25677797D01*
X159900892Y25725416D01*
X160138988Y25725416D01*
X160234226Y25677797D01*
X160281845Y25630178D01*
X160329464Y25534940D01*
X160329464Y25296845D01*
X160281845Y25201607D01*
X160234226Y25153988D01*
X160138988Y25106369D01*
X159900892Y25106369D01*
X159805654Y25153988D01*
X159758035Y25201607D01*
X151498958Y6614107D02*
X151451339Y6566488D01*
X151308482Y6518869D01*
X151213244Y6518869D01*
X151070386Y6566488D01*
X150975148Y6661726D01*
X150927529Y6756964D01*
X150879910Y6947440D01*
X150879910Y7090297D01*
X150927529Y7280773D01*
X150975148Y7376011D01*
X151070386Y7471250D01*
X151213244Y7518869D01*
X151308482Y7518869D01*
X151451339Y7471250D01*
X151498958Y7423630D01*
X152356101Y7185535D02*
X152356101Y6518869D01*
X152118005Y7566488D02*
X151879910Y6852202D01*
X152498958Y6852202D01*
X151380208Y11245357D02*
X151332589Y11197738D01*
X151189732Y11150119D01*
X151094494Y11150119D01*
X150951636Y11197738D01*
X150856398Y11292976D01*
X150808779Y11388214D01*
X150761160Y11578690D01*
X150761160Y11721547D01*
X150808779Y11912023D01*
X150856398Y12007261D01*
X150951636Y12102500D01*
X151094494Y12150119D01*
X151189732Y12150119D01*
X151332589Y12102500D01*
X151380208Y12054880D01*
X151713541Y12150119D02*
X152332589Y12150119D01*
X151999255Y11769166D01*
X152142113Y11769166D01*
X152237351Y11721547D01*
X152284970Y11673928D01*
X152332589Y11578690D01*
X152332589Y11340595D01*
X152284970Y11245357D01*
X152237351Y11197738D01*
X152142113Y11150119D01*
X151856398Y11150119D01*
X151761160Y11197738D01*
X151713541Y11245357D01*
X176074434Y21216934D02*
X176074434Y20740744D01*
X175741101Y21740744D02*
X176074434Y21216934D01*
X176407767Y21740744D01*
X177264910Y20740744D02*
X176693482Y20740744D01*
X176979196Y20740744D02*
X176979196Y21740744D01*
X176883958Y21597886D01*
X176788720Y21502648D01*
X176693482Y21455029D01*
M02*
