G04 #@! TF.GenerationSoftware,KiCad,Pcbnew,(5.1.10)-1*
G04 #@! TF.CreationDate,2021-09-02T21:34:46+08:00*
G04 #@! TF.ProjectId,AELITH,41454c49-5448-42e6-9b69-6361645f7063,rev?*
G04 #@! TF.SameCoordinates,Original*
G04 #@! TF.FileFunction,Soldermask,Top*
G04 #@! TF.FilePolarity,Negative*
%FSLAX46Y46*%
G04 Gerber Fmt 4.6, Leading zero omitted, Abs format (unit mm)*
G04 Created by KiCad (PCBNEW (5.1.10)-1) date 2021-09-02 21:34:46*
%MOMM*%
%LPD*%
G01*
G04 APERTURE LIST*
%ADD10C,0.100000*%
%ADD11O,1.502000X1.502000*%
%ADD12C,1.502000*%
%ADD13C,1.702000*%
%ADD14C,0.752000*%
%ADD15C,0.502000*%
%ADD16O,1.002000X2.502000*%
%ADD17O,1.002000X1.802000*%
%ADD18O,1.802000X1.802000*%
%ADD19O,1.702000X1.702000*%
%ADD20C,1.802000*%
%ADD21C,1.902000*%
%ADD22C,1.302000*%
%ADD23C,4.502000*%
%ADD24C,0.802000*%
%ADD25C,1.602000*%
%ADD26C,2.102000*%
%ADD27C,4.089800*%
%ADD28C,1.852000*%
%ADD29C,3.150000*%
%ADD30C,1.000000*%
G04 APERTURE END LIST*
D10*
G36*
X150026000Y-56181250D02*
G01*
X139026000Y-56181250D01*
X139026000Y-49931250D01*
X150026000Y-49931250D01*
X150026000Y-56181250D01*
G37*
X150026000Y-56181250D02*
X139026000Y-56181250D01*
X139026000Y-49931250D01*
X150026000Y-49931250D01*
X150026000Y-56181250D01*
G36*
X150026000Y-56181250D02*
G01*
X139026000Y-56181250D01*
X139026000Y-49931250D01*
X150026000Y-49931250D01*
X150026000Y-56181250D01*
G37*
X150026000Y-56181250D02*
X139026000Y-56181250D01*
X139026000Y-49931250D01*
X150026000Y-49931250D01*
X150026000Y-56181250D01*
D11*
X165893750Y21590000D03*
D12*
X158273750Y21590000D03*
D11*
X144938750Y24368125D03*
D12*
X137318750Y24368125D03*
D11*
X137239375Y19605625D03*
D12*
X144859375Y19605625D03*
D11*
X137239375Y21986875D03*
D12*
X144859375Y21986875D03*
D11*
X165893750Y19208750D03*
D12*
X158273750Y19208750D03*
D11*
X134620000Y21986875D03*
D12*
X127000000Y21986875D03*
D13*
X155178125Y19368125D03*
X155178125Y24368125D03*
X169465625Y18971250D03*
X169465625Y23971250D03*
X183753125Y19368125D03*
X183753125Y24368125D03*
D14*
X152484375Y26205625D03*
D15*
X154184375Y26205625D03*
D14*
X153334375Y26205625D03*
X151634375Y26205625D03*
X150784375Y26205625D03*
X149934375Y26205625D03*
X149084375Y26205625D03*
D15*
X148234375Y26205625D03*
D14*
X154184375Y27530625D03*
X153329375Y27530625D03*
X152479375Y27530625D03*
X151629375Y27530625D03*
X150779375Y27530625D03*
X149929375Y27530625D03*
X149079375Y27530625D03*
X148229375Y27530625D03*
D16*
X155534375Y27185625D03*
X146884375Y27185625D03*
D17*
X155534375Y30565625D03*
X146884375Y30565625D03*
D18*
X158035625Y9286875D03*
X160575625Y9286875D03*
X163115625Y9286875D03*
X165655625Y9286875D03*
X168195625Y9286875D03*
X170735625Y9286875D03*
G36*
G01*
X174125625Y8385875D02*
X172425625Y8385875D01*
G75*
G02*
X172374625Y8436875I0J51000D01*
G01*
X172374625Y10136875D01*
G75*
G02*
X172425625Y10187875I51000J0D01*
G01*
X174125625Y10187875D01*
G75*
G02*
X174176625Y10136875I0J-51000D01*
G01*
X174176625Y8436875D01*
G75*
G02*
X174125625Y8385875I-51000J0D01*
G01*
G37*
D19*
X175537813Y1746250D03*
X127277813Y16986250D03*
X172997813Y1746250D03*
X129817813Y16986250D03*
X170457813Y1746250D03*
X132357813Y16986250D03*
X167917813Y1746250D03*
X134897813Y16986250D03*
X165377813Y1746250D03*
X137437813Y16986250D03*
X162837813Y1746250D03*
X139977813Y16986250D03*
X160297813Y1746250D03*
X142517813Y16986250D03*
X157757813Y1746250D03*
X145057813Y16986250D03*
X155217813Y1746250D03*
X147597813Y16986250D03*
X152677813Y1746250D03*
X150137813Y16986250D03*
X150137813Y1746250D03*
X152677813Y16986250D03*
X147597813Y1746250D03*
X155217813Y16986250D03*
X145057813Y1746250D03*
X157757813Y16986250D03*
X142517813Y1746250D03*
X160297813Y16986250D03*
X139977813Y1746250D03*
X162837813Y16986250D03*
X137437813Y1746250D03*
X165377813Y16986250D03*
X134897813Y1746250D03*
X167917813Y16986250D03*
X132357813Y1746250D03*
X170457813Y16986250D03*
X129817813Y1746250D03*
X172997813Y16986250D03*
X127277813Y1746250D03*
G36*
G01*
X174737813Y17837250D02*
X176337813Y17837250D01*
G75*
G02*
X176388813Y17786250I0J-51000D01*
G01*
X176388813Y16186250D01*
G75*
G02*
X176337813Y16135250I-51000J0D01*
G01*
X174737813Y16135250D01*
G75*
G02*
X174686813Y16186250I0J51000D01*
G01*
X174686813Y17786250D01*
G75*
G02*
X174737813Y17837250I51000J0D01*
G01*
G37*
X137239375Y29527500D03*
G36*
G01*
X145710375Y30327500D02*
X145710375Y28727500D01*
G75*
G02*
X145659375Y28676500I-51000J0D01*
G01*
X144059375Y28676500D01*
G75*
G02*
X144008375Y28727500I0J51000D01*
G01*
X144008375Y30327500D01*
G75*
G02*
X144059375Y30378500I51000J0D01*
G01*
X145659375Y30378500D01*
G75*
G02*
X145710375Y30327500I0J-51000D01*
G01*
G37*
X137239375Y26749375D03*
G36*
G01*
X145710375Y27549375D02*
X145710375Y25949375D01*
G75*
G02*
X145659375Y25898375I-51000J0D01*
G01*
X144059375Y25898375D01*
G75*
G02*
X144008375Y25949375I0J51000D01*
G01*
X144008375Y27549375D01*
G75*
G02*
X144059375Y27600375I51000J0D01*
G01*
X145659375Y27600375D01*
G75*
G02*
X145710375Y27549375I0J-51000D01*
G01*
G37*
G36*
G01*
X163535625Y27491625D02*
X165235625Y27491625D01*
G75*
G02*
X165286625Y27440625I0J-51000D01*
G01*
X165286625Y25740625D01*
G75*
G02*
X165235625Y25689625I-51000J0D01*
G01*
X163535625Y25689625D01*
G75*
G02*
X163484625Y25740625I0J51000D01*
G01*
X163484625Y27440625D01*
G75*
G02*
X163535625Y27491625I51000J0D01*
G01*
G37*
D18*
X164385625Y29130625D03*
X166925625Y26590625D03*
X166925625Y29130625D03*
X169465625Y26590625D03*
D20*
X169465625Y29130625D03*
D19*
X-7143750Y20320000D03*
G36*
G01*
X-7943750Y28791000D02*
X-6343750Y28791000D01*
G75*
G02*
X-6292750Y28740000I0J-51000D01*
G01*
X-6292750Y27140000D01*
G75*
G02*
X-6343750Y27089000I-51000J0D01*
G01*
X-7943750Y27089000D01*
G75*
G02*
X-7994750Y27140000I0J51000D01*
G01*
X-7994750Y28740000D01*
G75*
G02*
X-7943750Y28791000I51000J0D01*
G01*
G37*
D21*
X134699375Y28336875D03*
G36*
G01*
X131208375Y27436875D02*
X131208375Y29236875D01*
G75*
G02*
X131259375Y29287875I51000J0D01*
G01*
X133059375Y29287875D01*
G75*
G02*
X133110375Y29236875I0J-51000D01*
G01*
X133110375Y27436875D01*
G75*
G02*
X133059375Y27385875I-51000J0D01*
G01*
X131259375Y27385875D01*
G75*
G02*
X131208375Y27436875I0J51000D01*
G01*
G37*
D22*
X159543750Y29130625D03*
G36*
G01*
X160143751Y26979625D02*
X158943749Y26979625D01*
G75*
G02*
X158892750Y27030624I0J50999D01*
G01*
X158892750Y28230626D01*
G75*
G02*
X158943749Y28281625I50999J0D01*
G01*
X160143751Y28281625D01*
G75*
G02*
X160194750Y28230626I0J-50999D01*
G01*
X160194750Y27030624D01*
G75*
G02*
X160143751Y26979625I-50999J0D01*
G01*
G37*
D13*
X152915625Y4921250D03*
X150415625Y4921250D03*
X150296875Y13652500D03*
X152796875Y13652500D03*
D19*
X313531250Y20320000D03*
G36*
G01*
X312731250Y28791000D02*
X314331250Y28791000D01*
G75*
G02*
X314382250Y28740000I0J-51000D01*
G01*
X314382250Y27140000D01*
G75*
G02*
X314331250Y27089000I-51000J0D01*
G01*
X312731250Y27089000D01*
G75*
G02*
X312680250Y27140000I0J51000D01*
G01*
X312680250Y28740000D01*
G75*
G02*
X312731250Y28791000I51000J0D01*
G01*
G37*
X250031250Y20320000D03*
G36*
G01*
X249231250Y28791000D02*
X250831250Y28791000D01*
G75*
G02*
X250882250Y28740000I0J-51000D01*
G01*
X250882250Y27140000D01*
G75*
G02*
X250831250Y27089000I-51000J0D01*
G01*
X249231250Y27089000D01*
G75*
G02*
X249180250Y27140000I0J51000D01*
G01*
X249180250Y28740000D01*
G75*
G02*
X249231250Y28791000I51000J0D01*
G01*
G37*
X214312500Y20320000D03*
G36*
G01*
X213512500Y28791000D02*
X215112500Y28791000D01*
G75*
G02*
X215163500Y28740000I0J-51000D01*
G01*
X215163500Y27140000D01*
G75*
G02*
X215112500Y27089000I-51000J0D01*
G01*
X213512500Y27089000D01*
G75*
G02*
X213461500Y27140000I0J51000D01*
G01*
X213461500Y28740000D01*
G75*
G02*
X213512500Y28791000I51000J0D01*
G01*
G37*
X103981250Y20320000D03*
G36*
G01*
X103181250Y28791000D02*
X104781250Y28791000D01*
G75*
G02*
X104832250Y28740000I0J-51000D01*
G01*
X104832250Y27140000D01*
G75*
G02*
X104781250Y27089000I-51000J0D01*
G01*
X103181250Y27089000D01*
G75*
G02*
X103130250Y27140000I0J51000D01*
G01*
X103130250Y28740000D01*
G75*
G02*
X103181250Y28791000I51000J0D01*
G01*
G37*
X68262500Y20320000D03*
G36*
G01*
X67462500Y28791000D02*
X69062500Y28791000D01*
G75*
G02*
X69113500Y28740000I0J-51000D01*
G01*
X69113500Y27140000D01*
G75*
G02*
X69062500Y27089000I-51000J0D01*
G01*
X67462500Y27089000D01*
G75*
G02*
X67411500Y27140000I0J51000D01*
G01*
X67411500Y28740000D01*
G75*
G02*
X67462500Y28791000I51000J0D01*
G01*
G37*
X48418750Y20320000D03*
G36*
G01*
X47618750Y28791000D02*
X49218750Y28791000D01*
G75*
G02*
X49269750Y28740000I0J-51000D01*
G01*
X49269750Y27140000D01*
G75*
G02*
X49218750Y27089000I-51000J0D01*
G01*
X47618750Y27089000D01*
G75*
G02*
X47567750Y27140000I0J51000D01*
G01*
X47567750Y28740000D01*
G75*
G02*
X47618750Y28791000I51000J0D01*
G01*
G37*
X12700000Y20320000D03*
G36*
G01*
X11900000Y28791000D02*
X13500000Y28791000D01*
G75*
G02*
X13551000Y28740000I0J-51000D01*
G01*
X13551000Y27140000D01*
G75*
G02*
X13500000Y27089000I-51000J0D01*
G01*
X11900000Y27089000D01*
G75*
G02*
X11849000Y27140000I0J51000D01*
G01*
X11849000Y28740000D01*
G75*
G02*
X11900000Y28791000I51000J0D01*
G01*
G37*
X309562500Y20320000D03*
G36*
G01*
X308762500Y28791000D02*
X310362500Y28791000D01*
G75*
G02*
X310413500Y28740000I0J-51000D01*
G01*
X310413500Y27140000D01*
G75*
G02*
X310362500Y27089000I-51000J0D01*
G01*
X308762500Y27089000D01*
G75*
G02*
X308711500Y27140000I0J51000D01*
G01*
X308711500Y28740000D01*
G75*
G02*
X308762500Y28791000I51000J0D01*
G01*
G37*
X293687500Y20320000D03*
G36*
G01*
X292887500Y28791000D02*
X294487500Y28791000D01*
G75*
G02*
X294538500Y28740000I0J-51000D01*
G01*
X294538500Y27140000D01*
G75*
G02*
X294487500Y27089000I-51000J0D01*
G01*
X292887500Y27089000D01*
G75*
G02*
X292836500Y27140000I0J51000D01*
G01*
X292836500Y28740000D01*
G75*
G02*
X292887500Y28791000I51000J0D01*
G01*
G37*
X281781250Y20320000D03*
G36*
G01*
X280981250Y28791000D02*
X282581250Y28791000D01*
G75*
G02*
X282632250Y28740000I0J-51000D01*
G01*
X282632250Y27140000D01*
G75*
G02*
X282581250Y27089000I-51000J0D01*
G01*
X280981250Y27089000D01*
G75*
G02*
X280930250Y27140000I0J51000D01*
G01*
X280930250Y28740000D01*
G75*
G02*
X280981250Y28791000I51000J0D01*
G01*
G37*
X265906250Y20320000D03*
G36*
G01*
X265106250Y28791000D02*
X266706250Y28791000D01*
G75*
G02*
X266757250Y28740000I0J-51000D01*
G01*
X266757250Y27140000D01*
G75*
G02*
X266706250Y27089000I-51000J0D01*
G01*
X265106250Y27089000D01*
G75*
G02*
X265055250Y27140000I0J51000D01*
G01*
X265055250Y28740000D01*
G75*
G02*
X265106250Y28791000I51000J0D01*
G01*
G37*
X246062500Y20320000D03*
G36*
G01*
X245262500Y28791000D02*
X246862500Y28791000D01*
G75*
G02*
X246913500Y28740000I0J-51000D01*
G01*
X246913500Y27140000D01*
G75*
G02*
X246862500Y27089000I-51000J0D01*
G01*
X245262500Y27089000D01*
G75*
G02*
X245211500Y27140000I0J51000D01*
G01*
X245211500Y28740000D01*
G75*
G02*
X245262500Y28791000I51000J0D01*
G01*
G37*
X230187500Y20320000D03*
G36*
G01*
X229387500Y28791000D02*
X230987500Y28791000D01*
G75*
G02*
X231038500Y28740000I0J-51000D01*
G01*
X231038500Y27140000D01*
G75*
G02*
X230987500Y27089000I-51000J0D01*
G01*
X229387500Y27089000D01*
G75*
G02*
X229336500Y27140000I0J51000D01*
G01*
X229336500Y28740000D01*
G75*
G02*
X229387500Y28791000I51000J0D01*
G01*
G37*
X210343750Y20320000D03*
G36*
G01*
X209543750Y28791000D02*
X211143750Y28791000D01*
G75*
G02*
X211194750Y28740000I0J-51000D01*
G01*
X211194750Y27140000D01*
G75*
G02*
X211143750Y27089000I-51000J0D01*
G01*
X209543750Y27089000D01*
G75*
G02*
X209492750Y27140000I0J51000D01*
G01*
X209492750Y28740000D01*
G75*
G02*
X209543750Y28791000I51000J0D01*
G01*
G37*
X194468750Y20320000D03*
G36*
G01*
X193668750Y28791000D02*
X195268750Y28791000D01*
G75*
G02*
X195319750Y28740000I0J-51000D01*
G01*
X195319750Y27140000D01*
G75*
G02*
X195268750Y27089000I-51000J0D01*
G01*
X193668750Y27089000D01*
G75*
G02*
X193617750Y27140000I0J51000D01*
G01*
X193617750Y28740000D01*
G75*
G02*
X193668750Y28791000I51000J0D01*
G01*
G37*
X100012500Y20320000D03*
G36*
G01*
X99212500Y28791000D02*
X100812500Y28791000D01*
G75*
G02*
X100863500Y28740000I0J-51000D01*
G01*
X100863500Y27140000D01*
G75*
G02*
X100812500Y27089000I-51000J0D01*
G01*
X99212500Y27089000D01*
G75*
G02*
X99161500Y27140000I0J51000D01*
G01*
X99161500Y28740000D01*
G75*
G02*
X99212500Y28791000I51000J0D01*
G01*
G37*
X84137500Y20320000D03*
G36*
G01*
X83337500Y28791000D02*
X84937500Y28791000D01*
G75*
G02*
X84988500Y28740000I0J-51000D01*
G01*
X84988500Y27140000D01*
G75*
G02*
X84937500Y27089000I-51000J0D01*
G01*
X83337500Y27089000D01*
G75*
G02*
X83286500Y27140000I0J51000D01*
G01*
X83286500Y28740000D01*
G75*
G02*
X83337500Y28791000I51000J0D01*
G01*
G37*
X64293750Y20320000D03*
G36*
G01*
X63493750Y28791000D02*
X65093750Y28791000D01*
G75*
G02*
X65144750Y28740000I0J-51000D01*
G01*
X65144750Y27140000D01*
G75*
G02*
X65093750Y27089000I-51000J0D01*
G01*
X63493750Y27089000D01*
G75*
G02*
X63442750Y27140000I0J51000D01*
G01*
X63442750Y28740000D01*
G75*
G02*
X63493750Y28791000I51000J0D01*
G01*
G37*
X44450000Y20320000D03*
G36*
G01*
X43650000Y28791000D02*
X45250000Y28791000D01*
G75*
G02*
X45301000Y28740000I0J-51000D01*
G01*
X45301000Y27140000D01*
G75*
G02*
X45250000Y27089000I-51000J0D01*
G01*
X43650000Y27089000D01*
G75*
G02*
X43599000Y27140000I0J51000D01*
G01*
X43599000Y28740000D01*
G75*
G02*
X43650000Y28791000I51000J0D01*
G01*
G37*
X28575000Y20320000D03*
G36*
G01*
X27775000Y28791000D02*
X29375000Y28791000D01*
G75*
G02*
X29426000Y28740000I0J-51000D01*
G01*
X29426000Y27140000D01*
G75*
G02*
X29375000Y27089000I-51000J0D01*
G01*
X27775000Y27089000D01*
G75*
G02*
X27724000Y27140000I0J51000D01*
G01*
X27724000Y28740000D01*
G75*
G02*
X27775000Y28791000I51000J0D01*
G01*
G37*
X8731250Y20320000D03*
G36*
G01*
X7931250Y28791000D02*
X9531250Y28791000D01*
G75*
G02*
X9582250Y28740000I0J-51000D01*
G01*
X9582250Y27140000D01*
G75*
G02*
X9531250Y27089000I-51000J0D01*
G01*
X7931250Y27089000D01*
G75*
G02*
X7880250Y27140000I0J51000D01*
G01*
X7880250Y28740000D01*
G75*
G02*
X7931250Y28791000I51000J0D01*
G01*
G37*
X305593750Y20320000D03*
G36*
G01*
X304793750Y28791000D02*
X306393750Y28791000D01*
G75*
G02*
X306444750Y28740000I0J-51000D01*
G01*
X306444750Y27140000D01*
G75*
G02*
X306393750Y27089000I-51000J0D01*
G01*
X304793750Y27089000D01*
G75*
G02*
X304742750Y27140000I0J51000D01*
G01*
X304742750Y28740000D01*
G75*
G02*
X304793750Y28791000I51000J0D01*
G01*
G37*
X277812500Y20320000D03*
G36*
G01*
X277012500Y28791000D02*
X278612500Y28791000D01*
G75*
G02*
X278663500Y28740000I0J-51000D01*
G01*
X278663500Y27140000D01*
G75*
G02*
X278612500Y27089000I-51000J0D01*
G01*
X277012500Y27089000D01*
G75*
G02*
X276961500Y27140000I0J51000D01*
G01*
X276961500Y28740000D01*
G75*
G02*
X277012500Y28791000I51000J0D01*
G01*
G37*
X261937500Y20320000D03*
G36*
G01*
X261137500Y28791000D02*
X262737500Y28791000D01*
G75*
G02*
X262788500Y28740000I0J-51000D01*
G01*
X262788500Y27140000D01*
G75*
G02*
X262737500Y27089000I-51000J0D01*
G01*
X261137500Y27089000D01*
G75*
G02*
X261086500Y27140000I0J51000D01*
G01*
X261086500Y28740000D01*
G75*
G02*
X261137500Y28791000I51000J0D01*
G01*
G37*
X242093750Y20320000D03*
G36*
G01*
X241293750Y28791000D02*
X242893750Y28791000D01*
G75*
G02*
X242944750Y28740000I0J-51000D01*
G01*
X242944750Y27140000D01*
G75*
G02*
X242893750Y27089000I-51000J0D01*
G01*
X241293750Y27089000D01*
G75*
G02*
X241242750Y27140000I0J51000D01*
G01*
X241242750Y28740000D01*
G75*
G02*
X241293750Y28791000I51000J0D01*
G01*
G37*
X226218750Y20320000D03*
G36*
G01*
X225418750Y28791000D02*
X227018750Y28791000D01*
G75*
G02*
X227069750Y28740000I0J-51000D01*
G01*
X227069750Y27140000D01*
G75*
G02*
X227018750Y27089000I-51000J0D01*
G01*
X225418750Y27089000D01*
G75*
G02*
X225367750Y27140000I0J51000D01*
G01*
X225367750Y28740000D01*
G75*
G02*
X225418750Y28791000I51000J0D01*
G01*
G37*
X206375000Y20320000D03*
G36*
G01*
X205575000Y28791000D02*
X207175000Y28791000D01*
G75*
G02*
X207226000Y28740000I0J-51000D01*
G01*
X207226000Y27140000D01*
G75*
G02*
X207175000Y27089000I-51000J0D01*
G01*
X205575000Y27089000D01*
G75*
G02*
X205524000Y27140000I0J51000D01*
G01*
X205524000Y28740000D01*
G75*
G02*
X205575000Y28791000I51000J0D01*
G01*
G37*
X190500000Y20320000D03*
G36*
G01*
X189700000Y28791000D02*
X191300000Y28791000D01*
G75*
G02*
X191351000Y28740000I0J-51000D01*
G01*
X191351000Y27140000D01*
G75*
G02*
X191300000Y27089000I-51000J0D01*
G01*
X189700000Y27089000D01*
G75*
G02*
X189649000Y27140000I0J51000D01*
G01*
X189649000Y28740000D01*
G75*
G02*
X189700000Y28791000I51000J0D01*
G01*
G37*
X96043750Y20320000D03*
G36*
G01*
X95243750Y28791000D02*
X96843750Y28791000D01*
G75*
G02*
X96894750Y28740000I0J-51000D01*
G01*
X96894750Y27140000D01*
G75*
G02*
X96843750Y27089000I-51000J0D01*
G01*
X95243750Y27089000D01*
G75*
G02*
X95192750Y27140000I0J51000D01*
G01*
X95192750Y28740000D01*
G75*
G02*
X95243750Y28791000I51000J0D01*
G01*
G37*
X80168750Y20320000D03*
G36*
G01*
X79368750Y28791000D02*
X80968750Y28791000D01*
G75*
G02*
X81019750Y28740000I0J-51000D01*
G01*
X81019750Y27140000D01*
G75*
G02*
X80968750Y27089000I-51000J0D01*
G01*
X79368750Y27089000D01*
G75*
G02*
X79317750Y27140000I0J51000D01*
G01*
X79317750Y28740000D01*
G75*
G02*
X79368750Y28791000I51000J0D01*
G01*
G37*
X60325000Y20320000D03*
G36*
G01*
X59525000Y28791000D02*
X61125000Y28791000D01*
G75*
G02*
X61176000Y28740000I0J-51000D01*
G01*
X61176000Y27140000D01*
G75*
G02*
X61125000Y27089000I-51000J0D01*
G01*
X59525000Y27089000D01*
G75*
G02*
X59474000Y27140000I0J51000D01*
G01*
X59474000Y28740000D01*
G75*
G02*
X59525000Y28791000I51000J0D01*
G01*
G37*
X40481250Y20320000D03*
G36*
G01*
X39681250Y28791000D02*
X41281250Y28791000D01*
G75*
G02*
X41332250Y28740000I0J-51000D01*
G01*
X41332250Y27140000D01*
G75*
G02*
X41281250Y27089000I-51000J0D01*
G01*
X39681250Y27089000D01*
G75*
G02*
X39630250Y27140000I0J51000D01*
G01*
X39630250Y28740000D01*
G75*
G02*
X39681250Y28791000I51000J0D01*
G01*
G37*
X24606250Y20320000D03*
G36*
G01*
X23806250Y28791000D02*
X25406250Y28791000D01*
G75*
G02*
X25457250Y28740000I0J-51000D01*
G01*
X25457250Y27140000D01*
G75*
G02*
X25406250Y27089000I-51000J0D01*
G01*
X23806250Y27089000D01*
G75*
G02*
X23755250Y27140000I0J51000D01*
G01*
X23755250Y28740000D01*
G75*
G02*
X23806250Y28791000I51000J0D01*
G01*
G37*
X4762500Y20320000D03*
G36*
G01*
X3962500Y28791000D02*
X5562500Y28791000D01*
G75*
G02*
X5613500Y28740000I0J-51000D01*
G01*
X5613500Y27140000D01*
G75*
G02*
X5562500Y27089000I-51000J0D01*
G01*
X3962500Y27089000D01*
G75*
G02*
X3911500Y27140000I0J51000D01*
G01*
X3911500Y28740000D01*
G75*
G02*
X3962500Y28791000I51000J0D01*
G01*
G37*
X301625000Y20320000D03*
G36*
G01*
X300825000Y28791000D02*
X302425000Y28791000D01*
G75*
G02*
X302476000Y28740000I0J-51000D01*
G01*
X302476000Y27140000D01*
G75*
G02*
X302425000Y27089000I-51000J0D01*
G01*
X300825000Y27089000D01*
G75*
G02*
X300774000Y27140000I0J51000D01*
G01*
X300774000Y28740000D01*
G75*
G02*
X300825000Y28791000I51000J0D01*
G01*
G37*
X289718750Y20320000D03*
G36*
G01*
X288918750Y28791000D02*
X290518750Y28791000D01*
G75*
G02*
X290569750Y28740000I0J-51000D01*
G01*
X290569750Y27140000D01*
G75*
G02*
X290518750Y27089000I-51000J0D01*
G01*
X288918750Y27089000D01*
G75*
G02*
X288867750Y27140000I0J51000D01*
G01*
X288867750Y28740000D01*
G75*
G02*
X288918750Y28791000I51000J0D01*
G01*
G37*
X273843750Y20320000D03*
G36*
G01*
X273043750Y28791000D02*
X274643750Y28791000D01*
G75*
G02*
X274694750Y28740000I0J-51000D01*
G01*
X274694750Y27140000D01*
G75*
G02*
X274643750Y27089000I-51000J0D01*
G01*
X273043750Y27089000D01*
G75*
G02*
X272992750Y27140000I0J51000D01*
G01*
X272992750Y28740000D01*
G75*
G02*
X273043750Y28791000I51000J0D01*
G01*
G37*
X257968750Y20320000D03*
G36*
G01*
X257168750Y28791000D02*
X258768750Y28791000D01*
G75*
G02*
X258819750Y28740000I0J-51000D01*
G01*
X258819750Y27140000D01*
G75*
G02*
X258768750Y27089000I-51000J0D01*
G01*
X257168750Y27089000D01*
G75*
G02*
X257117750Y27140000I0J51000D01*
G01*
X257117750Y28740000D01*
G75*
G02*
X257168750Y28791000I51000J0D01*
G01*
G37*
X238125000Y20320000D03*
G36*
G01*
X237325000Y28791000D02*
X238925000Y28791000D01*
G75*
G02*
X238976000Y28740000I0J-51000D01*
G01*
X238976000Y27140000D01*
G75*
G02*
X238925000Y27089000I-51000J0D01*
G01*
X237325000Y27089000D01*
G75*
G02*
X237274000Y27140000I0J51000D01*
G01*
X237274000Y28740000D01*
G75*
G02*
X237325000Y28791000I51000J0D01*
G01*
G37*
X222250000Y20320000D03*
G36*
G01*
X221450000Y28791000D02*
X223050000Y28791000D01*
G75*
G02*
X223101000Y28740000I0J-51000D01*
G01*
X223101000Y27140000D01*
G75*
G02*
X223050000Y27089000I-51000J0D01*
G01*
X221450000Y27089000D01*
G75*
G02*
X221399000Y27140000I0J51000D01*
G01*
X221399000Y28740000D01*
G75*
G02*
X221450000Y28791000I51000J0D01*
G01*
G37*
X202406250Y20320000D03*
G36*
G01*
X201606250Y28791000D02*
X203206250Y28791000D01*
G75*
G02*
X203257250Y28740000I0J-51000D01*
G01*
X203257250Y27140000D01*
G75*
G02*
X203206250Y27089000I-51000J0D01*
G01*
X201606250Y27089000D01*
G75*
G02*
X201555250Y27140000I0J51000D01*
G01*
X201555250Y28740000D01*
G75*
G02*
X201606250Y28791000I51000J0D01*
G01*
G37*
X186531250Y20320000D03*
G36*
G01*
X185731250Y28791000D02*
X187331250Y28791000D01*
G75*
G02*
X187382250Y28740000I0J-51000D01*
G01*
X187382250Y27140000D01*
G75*
G02*
X187331250Y27089000I-51000J0D01*
G01*
X185731250Y27089000D01*
G75*
G02*
X185680250Y27140000I0J51000D01*
G01*
X185680250Y28740000D01*
G75*
G02*
X185731250Y28791000I51000J0D01*
G01*
G37*
X92075000Y20320000D03*
G36*
G01*
X91275000Y28791000D02*
X92875000Y28791000D01*
G75*
G02*
X92926000Y28740000I0J-51000D01*
G01*
X92926000Y27140000D01*
G75*
G02*
X92875000Y27089000I-51000J0D01*
G01*
X91275000Y27089000D01*
G75*
G02*
X91224000Y27140000I0J51000D01*
G01*
X91224000Y28740000D01*
G75*
G02*
X91275000Y28791000I51000J0D01*
G01*
G37*
X76200000Y20320000D03*
G36*
G01*
X75400000Y28791000D02*
X77000000Y28791000D01*
G75*
G02*
X77051000Y28740000I0J-51000D01*
G01*
X77051000Y27140000D01*
G75*
G02*
X77000000Y27089000I-51000J0D01*
G01*
X75400000Y27089000D01*
G75*
G02*
X75349000Y27140000I0J51000D01*
G01*
X75349000Y28740000D01*
G75*
G02*
X75400000Y28791000I51000J0D01*
G01*
G37*
X56356250Y20320000D03*
G36*
G01*
X55556250Y28791000D02*
X57156250Y28791000D01*
G75*
G02*
X57207250Y28740000I0J-51000D01*
G01*
X57207250Y27140000D01*
G75*
G02*
X57156250Y27089000I-51000J0D01*
G01*
X55556250Y27089000D01*
G75*
G02*
X55505250Y27140000I0J51000D01*
G01*
X55505250Y28740000D01*
G75*
G02*
X55556250Y28791000I51000J0D01*
G01*
G37*
X36512500Y20320000D03*
G36*
G01*
X35712500Y28791000D02*
X37312500Y28791000D01*
G75*
G02*
X37363500Y28740000I0J-51000D01*
G01*
X37363500Y27140000D01*
G75*
G02*
X37312500Y27089000I-51000J0D01*
G01*
X35712500Y27089000D01*
G75*
G02*
X35661500Y27140000I0J51000D01*
G01*
X35661500Y28740000D01*
G75*
G02*
X35712500Y28791000I51000J0D01*
G01*
G37*
X20637500Y20320000D03*
G36*
G01*
X19837500Y28791000D02*
X21437500Y28791000D01*
G75*
G02*
X21488500Y28740000I0J-51000D01*
G01*
X21488500Y27140000D01*
G75*
G02*
X21437500Y27089000I-51000J0D01*
G01*
X19837500Y27089000D01*
G75*
G02*
X19786500Y27140000I0J51000D01*
G01*
X19786500Y28740000D01*
G75*
G02*
X19837500Y28791000I51000J0D01*
G01*
G37*
X793750Y20320000D03*
G36*
G01*
X-6250Y28791000D02*
X1593750Y28791000D01*
G75*
G02*
X1644750Y28740000I0J-51000D01*
G01*
X1644750Y27140000D01*
G75*
G02*
X1593750Y27089000I-51000J0D01*
G01*
X-6250Y27089000D01*
G75*
G02*
X-57250Y27140000I0J51000D01*
G01*
X-57250Y28740000D01*
G75*
G02*
X-6250Y28791000I51000J0D01*
G01*
G37*
X-11112500Y20320000D03*
G36*
G01*
X-11912500Y28791000D02*
X-10312500Y28791000D01*
G75*
G02*
X-10261500Y28740000I0J-51000D01*
G01*
X-10261500Y27140000D01*
G75*
G02*
X-10312500Y27089000I-51000J0D01*
G01*
X-11912500Y27089000D01*
G75*
G02*
X-11963500Y27140000I0J51000D01*
G01*
X-11963500Y28740000D01*
G75*
G02*
X-11912500Y28791000I51000J0D01*
G01*
G37*
X297656250Y20320000D03*
G36*
G01*
X296856250Y28791000D02*
X298456250Y28791000D01*
G75*
G02*
X298507250Y28740000I0J-51000D01*
G01*
X298507250Y27140000D01*
G75*
G02*
X298456250Y27089000I-51000J0D01*
G01*
X296856250Y27089000D01*
G75*
G02*
X296805250Y27140000I0J51000D01*
G01*
X296805250Y28740000D01*
G75*
G02*
X296856250Y28791000I51000J0D01*
G01*
G37*
X285750000Y20320000D03*
G36*
G01*
X284950000Y28791000D02*
X286550000Y28791000D01*
G75*
G02*
X286601000Y28740000I0J-51000D01*
G01*
X286601000Y27140000D01*
G75*
G02*
X286550000Y27089000I-51000J0D01*
G01*
X284950000Y27089000D01*
G75*
G02*
X284899000Y27140000I0J51000D01*
G01*
X284899000Y28740000D01*
G75*
G02*
X284950000Y28791000I51000J0D01*
G01*
G37*
X269875000Y20320000D03*
G36*
G01*
X269075000Y28791000D02*
X270675000Y28791000D01*
G75*
G02*
X270726000Y28740000I0J-51000D01*
G01*
X270726000Y27140000D01*
G75*
G02*
X270675000Y27089000I-51000J0D01*
G01*
X269075000Y27089000D01*
G75*
G02*
X269024000Y27140000I0J51000D01*
G01*
X269024000Y28740000D01*
G75*
G02*
X269075000Y28791000I51000J0D01*
G01*
G37*
X254000000Y20320000D03*
G36*
G01*
X253200000Y28791000D02*
X254800000Y28791000D01*
G75*
G02*
X254851000Y28740000I0J-51000D01*
G01*
X254851000Y27140000D01*
G75*
G02*
X254800000Y27089000I-51000J0D01*
G01*
X253200000Y27089000D01*
G75*
G02*
X253149000Y27140000I0J51000D01*
G01*
X253149000Y28740000D01*
G75*
G02*
X253200000Y28791000I51000J0D01*
G01*
G37*
X234156250Y20320000D03*
G36*
G01*
X233356250Y28791000D02*
X234956250Y28791000D01*
G75*
G02*
X235007250Y28740000I0J-51000D01*
G01*
X235007250Y27140000D01*
G75*
G02*
X234956250Y27089000I-51000J0D01*
G01*
X233356250Y27089000D01*
G75*
G02*
X233305250Y27140000I0J51000D01*
G01*
X233305250Y28740000D01*
G75*
G02*
X233356250Y28791000I51000J0D01*
G01*
G37*
X218281250Y20320000D03*
G36*
G01*
X217481250Y28791000D02*
X219081250Y28791000D01*
G75*
G02*
X219132250Y28740000I0J-51000D01*
G01*
X219132250Y27140000D01*
G75*
G02*
X219081250Y27089000I-51000J0D01*
G01*
X217481250Y27089000D01*
G75*
G02*
X217430250Y27140000I0J51000D01*
G01*
X217430250Y28740000D01*
G75*
G02*
X217481250Y28791000I51000J0D01*
G01*
G37*
X198437500Y20320000D03*
G36*
G01*
X197637500Y28791000D02*
X199237500Y28791000D01*
G75*
G02*
X199288500Y28740000I0J-51000D01*
G01*
X199288500Y27140000D01*
G75*
G02*
X199237500Y27089000I-51000J0D01*
G01*
X197637500Y27089000D01*
G75*
G02*
X197586500Y27140000I0J51000D01*
G01*
X197586500Y28740000D01*
G75*
G02*
X197637500Y28791000I51000J0D01*
G01*
G37*
X115887500Y20320000D03*
G36*
G01*
X115087500Y28791000D02*
X116687500Y28791000D01*
G75*
G02*
X116738500Y28740000I0J-51000D01*
G01*
X116738500Y27140000D01*
G75*
G02*
X116687500Y27089000I-51000J0D01*
G01*
X115087500Y27089000D01*
G75*
G02*
X115036500Y27140000I0J51000D01*
G01*
X115036500Y28740000D01*
G75*
G02*
X115087500Y28791000I51000J0D01*
G01*
G37*
X111918750Y20320000D03*
G36*
G01*
X111118750Y28791000D02*
X112718750Y28791000D01*
G75*
G02*
X112769750Y28740000I0J-51000D01*
G01*
X112769750Y27140000D01*
G75*
G02*
X112718750Y27089000I-51000J0D01*
G01*
X111118750Y27089000D01*
G75*
G02*
X111067750Y27140000I0J51000D01*
G01*
X111067750Y28740000D01*
G75*
G02*
X111118750Y28791000I51000J0D01*
G01*
G37*
X107950000Y20320000D03*
G36*
G01*
X107150000Y28791000D02*
X108750000Y28791000D01*
G75*
G02*
X108801000Y28740000I0J-51000D01*
G01*
X108801000Y27140000D01*
G75*
G02*
X108750000Y27089000I-51000J0D01*
G01*
X107150000Y27089000D01*
G75*
G02*
X107099000Y27140000I0J51000D01*
G01*
X107099000Y28740000D01*
G75*
G02*
X107150000Y28791000I51000J0D01*
G01*
G37*
X88106250Y20320000D03*
G36*
G01*
X87306250Y28791000D02*
X88906250Y28791000D01*
G75*
G02*
X88957250Y28740000I0J-51000D01*
G01*
X88957250Y27140000D01*
G75*
G02*
X88906250Y27089000I-51000J0D01*
G01*
X87306250Y27089000D01*
G75*
G02*
X87255250Y27140000I0J51000D01*
G01*
X87255250Y28740000D01*
G75*
G02*
X87306250Y28791000I51000J0D01*
G01*
G37*
X72231250Y20320000D03*
G36*
G01*
X71431250Y28791000D02*
X73031250Y28791000D01*
G75*
G02*
X73082250Y28740000I0J-51000D01*
G01*
X73082250Y27140000D01*
G75*
G02*
X73031250Y27089000I-51000J0D01*
G01*
X71431250Y27089000D01*
G75*
G02*
X71380250Y27140000I0J51000D01*
G01*
X71380250Y28740000D01*
G75*
G02*
X71431250Y28791000I51000J0D01*
G01*
G37*
X52387500Y20320000D03*
G36*
G01*
X51587500Y28791000D02*
X53187500Y28791000D01*
G75*
G02*
X53238500Y28740000I0J-51000D01*
G01*
X53238500Y27140000D01*
G75*
G02*
X53187500Y27089000I-51000J0D01*
G01*
X51587500Y27089000D01*
G75*
G02*
X51536500Y27140000I0J51000D01*
G01*
X51536500Y28740000D01*
G75*
G02*
X51587500Y28791000I51000J0D01*
G01*
G37*
X32543750Y20320000D03*
G36*
G01*
X31743750Y28791000D02*
X33343750Y28791000D01*
G75*
G02*
X33394750Y28740000I0J-51000D01*
G01*
X33394750Y27140000D01*
G75*
G02*
X33343750Y27089000I-51000J0D01*
G01*
X31743750Y27089000D01*
G75*
G02*
X31692750Y27140000I0J51000D01*
G01*
X31692750Y28740000D01*
G75*
G02*
X31743750Y28791000I51000J0D01*
G01*
G37*
X16668750Y20320000D03*
G36*
G01*
X15868750Y28791000D02*
X17468750Y28791000D01*
G75*
G02*
X17519750Y28740000I0J-51000D01*
G01*
X17519750Y27140000D01*
G75*
G02*
X17468750Y27089000I-51000J0D01*
G01*
X15868750Y27089000D01*
G75*
G02*
X15817750Y27140000I0J51000D01*
G01*
X15817750Y28740000D01*
G75*
G02*
X15868750Y28791000I51000J0D01*
G01*
G37*
X-3175000Y20320000D03*
G36*
G01*
X-3975000Y28791000D02*
X-2375000Y28791000D01*
G75*
G02*
X-2324000Y28740000I0J-51000D01*
G01*
X-2324000Y27140000D01*
G75*
G02*
X-2375000Y27089000I-51000J0D01*
G01*
X-3975000Y27089000D01*
G75*
G02*
X-4026000Y27140000I0J51000D01*
G01*
X-4026000Y28740000D01*
G75*
G02*
X-3975000Y28791000I51000J0D01*
G01*
G37*
D23*
X206970312Y-91678125D03*
D24*
X208620312Y-91678125D03*
X208137038Y-92844851D03*
X206970312Y-93328125D03*
X205803586Y-92844851D03*
X205320312Y-91678125D03*
X205803586Y-90511399D03*
X206970312Y-90028125D03*
X208137038Y-90511399D03*
X183137038Y10652039D03*
X181970312Y11135313D03*
X180803586Y10652039D03*
X180320312Y9485313D03*
X180803586Y8318587D03*
X181970312Y7835313D03*
X183137038Y8318587D03*
X183620312Y9485313D03*
D23*
X181970312Y9485313D03*
D24*
X122012039Y10652039D03*
X120845313Y11135313D03*
X119678587Y10652039D03*
X119195313Y9485313D03*
X119678587Y8318587D03*
X120845313Y7835313D03*
X122012039Y8318587D03*
X122495313Y9485313D03*
D23*
X120845313Y9485313D03*
X95845313Y-93662500D03*
D24*
X97495313Y-93662500D03*
X97012039Y-94829226D03*
X95845313Y-95312500D03*
X94678587Y-94829226D03*
X94195313Y-93662500D03*
X94678587Y-92495774D03*
X95845313Y-92012500D03*
X97012039Y-92495774D03*
D23*
X318095312Y-85328125D03*
D24*
X319745312Y-85328125D03*
X319262038Y-86494851D03*
X318095312Y-86978125D03*
X316928586Y-86494851D03*
X316445312Y-85328125D03*
X316928586Y-84161399D03*
X318095312Y-83678125D03*
X319262038Y-84161399D03*
X-14112961Y-84161399D03*
X-15279687Y-83678125D03*
X-16446413Y-84161399D03*
X-16929687Y-85328125D03*
X-16446413Y-86494851D03*
X-15279687Y-86978125D03*
X-14112961Y-86494851D03*
X-13629687Y-85328125D03*
D23*
X-15279687Y-85328125D03*
X318095312Y6945313D03*
D24*
X319745312Y6945313D03*
X319262038Y5778587D03*
X318095312Y5295313D03*
X316928586Y5778587D03*
X316445312Y6945313D03*
X316928586Y8112039D03*
X318095312Y8595313D03*
X319262038Y8112039D03*
X-14112961Y8112039D03*
X-15279687Y8595313D03*
X-16446413Y8112039D03*
X-16929687Y6945313D03*
X-16446413Y5778587D03*
X-15279687Y5295313D03*
X-14112961Y5778587D03*
X-13629687Y6945313D03*
D23*
X-15279687Y6945313D03*
D24*
X-14112961Y16009851D03*
X-15279687Y16493125D03*
X-16446413Y16009851D03*
X-16929687Y14843125D03*
X-16446413Y13676399D03*
X-15279687Y13193125D03*
X-14112961Y13676399D03*
X-13629687Y14843125D03*
D23*
X-15279687Y14843125D03*
D24*
X-14112961Y30297351D03*
X-15279687Y30780625D03*
X-16446413Y30297351D03*
X-16929687Y29130625D03*
X-16446413Y27963899D03*
X-15279687Y27480625D03*
X-14112961Y27963899D03*
X-13629687Y29130625D03*
D23*
X-15279687Y29130625D03*
X318095312Y14843125D03*
D24*
X319745312Y14843125D03*
X319262038Y13676399D03*
X318095312Y13193125D03*
X316928586Y13676399D03*
X316445312Y14843125D03*
X316928586Y16009851D03*
X318095312Y16493125D03*
X319262038Y16009851D03*
D23*
X318095312Y29130625D03*
D24*
X319745312Y29130625D03*
X319262038Y27963899D03*
X318095312Y27480625D03*
X316928586Y27963899D03*
X316445312Y29130625D03*
X316928586Y30297351D03*
X318095312Y30780625D03*
X319262038Y30297351D03*
D25*
X174110625Y21193125D03*
X178990625Y21193125D03*
D26*
X121293750Y25027500D03*
X121293750Y29527500D03*
X127793750Y25027500D03*
X127793750Y29527500D03*
X180331250Y29527500D03*
X180331250Y25027500D03*
X173831250Y29527500D03*
X173831250Y25027500D03*
D27*
X304946850Y-78387999D03*
D28*
X299866850Y-78387999D03*
X310026850Y-78387999D03*
D27*
X221550786Y-81335089D03*
D28*
X216581796Y-82391280D03*
X226519776Y-80278898D03*
D27*
X135019999Y-93299999D03*
D28*
X130051009Y-92243808D03*
X139988989Y-94356190D03*
D27*
X104737772Y-86863313D03*
D28*
X99768782Y-85807122D03*
X109706762Y-87919504D03*
D29*
X91639439Y-91220225D03*
X114931579Y-96171123D03*
D27*
X94808013Y-76313256D03*
X118100153Y-81264153D03*
X71499213Y-81335089D03*
D28*
X66530223Y-80278898D03*
X76468203Y-82391280D03*
D27*
X13008750Y-78339999D03*
D28*
X7928750Y-78339999D03*
X18088750Y-78339999D03*
D27*
X302565600Y-78387999D03*
D28*
X297485600Y-78387999D03*
X307645600Y-78387999D03*
D27*
X223880000Y-80839999D03*
D28*
X218911010Y-81896190D03*
X228848990Y-79783808D03*
D27*
X183470000Y-87899999D03*
D28*
X178501010Y-88956190D03*
X188438990Y-86843808D03*
D29*
X173276193Y-97207809D03*
X196568333Y-92256911D03*
D27*
X170107619Y-82300839D03*
X193399759Y-77349942D03*
X132692008Y-92805170D03*
D28*
X127723018Y-91748979D03*
X137660998Y-93861361D03*
D27*
X102408558Y-86368224D03*
D28*
X97439568Y-85312033D03*
X107377548Y-87424415D03*
D29*
X89310225Y-90725136D03*
X112602365Y-95676034D03*
D27*
X92478799Y-75818167D03*
X115770939Y-80769064D03*
X69170000Y-80839999D03*
D28*
X64201010Y-79783808D03*
X74138990Y-81896190D03*
D27*
X15390000Y-78339999D03*
D28*
X10310000Y-78339999D03*
X20470000Y-78339999D03*
D27*
X294340000Y-59289999D03*
D28*
X289260000Y-59289999D03*
X299420000Y-59289999D03*
D29*
X282433750Y-52304999D03*
X306246250Y-52304999D03*
D27*
X282433750Y-67544999D03*
X306246250Y-67544999D03*
X311008749Y-59290000D03*
D28*
X305928749Y-59290000D03*
X316088749Y-59290000D03*
D27*
X284815000Y-59290000D03*
D28*
X279735000Y-59290000D03*
X289895000Y-59290000D03*
D27*
X258620000Y-59289999D03*
D28*
X253540000Y-59289999D03*
X263700000Y-59289999D03*
D27*
X239570000Y-59289999D03*
D28*
X234490000Y-59289999D03*
X244650000Y-59289999D03*
D27*
X219070000Y-60849999D03*
D28*
X214101010Y-61906190D03*
X224038990Y-59793808D03*
D27*
X200436288Y-64810717D03*
D28*
X195467298Y-65866908D03*
X205405278Y-63754526D03*
D27*
X181802576Y-68771435D03*
D28*
X176833586Y-69827626D03*
X186771566Y-67715244D03*
D27*
X163168864Y-72732153D03*
D28*
X158199874Y-73788344D03*
X168137854Y-71675962D03*
D27*
X129881135Y-72732153D03*
D28*
X124912145Y-71675962D03*
X134850125Y-73788344D03*
D27*
X111247423Y-68771435D03*
D28*
X106278433Y-67715244D03*
X116216413Y-69827626D03*
D27*
X92613711Y-64810717D03*
D28*
X87644721Y-63754526D03*
X97582701Y-65866908D03*
D27*
X73980000Y-60849999D03*
D28*
X69011010Y-59793808D03*
X78948990Y-61906190D03*
D27*
X53480000Y-59289999D03*
D28*
X48400000Y-59289999D03*
X58560000Y-59289999D03*
D27*
X22530000Y-59289999D03*
D28*
X17450000Y-59289999D03*
X27610000Y-59289999D03*
D29*
X10623750Y-52304999D03*
X34436250Y-52304999D03*
D27*
X10623750Y-67544999D03*
X34436250Y-67544999D03*
X17170000Y-40239999D03*
D28*
X12090000Y-40239999D03*
X22250000Y-40239999D03*
D27*
X294930000Y-40239999D03*
D28*
X289850000Y-40239999D03*
X300010000Y-40239999D03*
D29*
X283023750Y-47224999D03*
X306836250Y-47224999D03*
D27*
X283023750Y-31984999D03*
X306836250Y-31984999D03*
X263980000Y-40239999D03*
D28*
X258900000Y-40239999D03*
X269060000Y-40239999D03*
D27*
X244930000Y-40239999D03*
D28*
X239850000Y-40239999D03*
X250010000Y-40239999D03*
D27*
X224429999Y-40239999D03*
D28*
X219461009Y-41296190D03*
X229398989Y-39183808D03*
D27*
X205796288Y-44200717D03*
D28*
X200827298Y-45256908D03*
X210765278Y-43144526D03*
D27*
X187162576Y-48161435D03*
D28*
X182193586Y-49217626D03*
X192131566Y-47105244D03*
D27*
X168528864Y-52122153D03*
D28*
X163559874Y-53178344D03*
X173497854Y-51065962D03*
D27*
X124531135Y-52122153D03*
D28*
X119562145Y-51065962D03*
X129500125Y-53178344D03*
D27*
X105897423Y-48161435D03*
D28*
X100928433Y-47105244D03*
X110866413Y-49217626D03*
D27*
X87263711Y-44200717D03*
D28*
X82294721Y-43144526D03*
X92232701Y-45256908D03*
D27*
X68630000Y-40239999D03*
D28*
X63661010Y-39183808D03*
X73598990Y-41296190D03*
D27*
X48129999Y-40239999D03*
D28*
X43049999Y-40239999D03*
X53209999Y-40239999D03*
D27*
X21932500Y-40239999D03*
D28*
X16852500Y-40239999D03*
X27012500Y-40239999D03*
D27*
X-8229999Y-38099999D03*
D28*
X-13309999Y-38099999D03*
X-3149999Y-38099999D03*
D27*
X297810000Y-21189999D03*
D28*
X292730000Y-21189999D03*
X302890000Y-21189999D03*
D27*
X273990000Y-21189999D03*
D28*
X268910000Y-21189999D03*
X279070000Y-21189999D03*
D27*
X254940000Y-21189999D03*
D28*
X249860000Y-21189999D03*
X260020000Y-21189999D03*
D27*
X236310000Y-20129999D03*
D28*
X231230000Y-20129999D03*
X241390000Y-20129999D03*
D27*
X215810000Y-22589999D03*
D28*
X210841010Y-23646190D03*
X220778990Y-21533808D03*
D27*
X197176289Y-26550716D03*
D28*
X192207299Y-27606907D03*
X202145279Y-25494525D03*
D27*
X178542577Y-30511434D03*
D28*
X173573587Y-31567625D03*
X183511567Y-29455243D03*
D27*
X159908865Y-34472152D03*
D28*
X154939875Y-35528343D03*
X164877855Y-33415961D03*
D27*
X123831135Y-32492153D03*
D28*
X118862145Y-31435962D03*
X128800125Y-33548344D03*
D27*
X105197423Y-28531435D03*
D28*
X100228433Y-27475244D03*
X110166413Y-29587626D03*
D27*
X86563711Y-24570717D03*
D28*
X81594721Y-23514526D03*
X91532701Y-25626908D03*
D27*
X67930000Y-20609999D03*
D28*
X62961010Y-19553808D03*
X72898990Y-21666190D03*
D27*
X47429999Y-21189999D03*
D28*
X42349999Y-21189999D03*
X52509999Y-21189999D03*
D27*
X23619999Y-21189999D03*
D28*
X18539999Y-21189999D03*
X28699999Y-21189999D03*
D27*
X-4160000Y-19049999D03*
D28*
X-9240000Y-19049999D03*
X920000Y-19049999D03*
D27*
X288875000Y-2139999D03*
D28*
X283795000Y-2139999D03*
X293955000Y-2139999D03*
D29*
X276968750Y4845001D03*
X300781250Y4845001D03*
D27*
X276968750Y-10394999D03*
X300781250Y-10394999D03*
X298400000Y-2139999D03*
D28*
X293320000Y-2139999D03*
X303480000Y-2139999D03*
D27*
X279350000Y-2139999D03*
D28*
X274270000Y-2139999D03*
X284430000Y-2139999D03*
D27*
X260300000Y-2139999D03*
D28*
X255220000Y-2139999D03*
X265380000Y-2139999D03*
D27*
X241670000Y0D03*
D28*
X236590000Y0D03*
X246750000Y0D03*
D27*
X221169999Y-1979999D03*
D28*
X216201009Y-3036190D03*
X226138989Y-923808D03*
D27*
X202536288Y-5940717D03*
D28*
X197567298Y-6996908D03*
X207505278Y-4884526D03*
D27*
X183902576Y-9901435D03*
D28*
X178933586Y-10957626D03*
X188871566Y-8845244D03*
D27*
X165268864Y-13862153D03*
D28*
X160299874Y-14918344D03*
X170237854Y-12805962D03*
D27*
X137111135Y-15842153D03*
D28*
X132142145Y-14785962D03*
X142080125Y-16898344D03*
D27*
X118477423Y-11881435D03*
D28*
X113508433Y-10825244D03*
X123446413Y-12937626D03*
D27*
X99843711Y-7920717D03*
D28*
X94874721Y-6864526D03*
X104812701Y-8976908D03*
D27*
X81210000Y-3959999D03*
D28*
X76241010Y-2903808D03*
X86178990Y-5016190D03*
D27*
X60710000Y0D03*
D28*
X55630000Y0D03*
X65790000Y0D03*
D27*
X42069999Y-2139999D03*
D28*
X36989999Y-2139999D03*
X47149999Y-2139999D03*
D27*
X23019999Y-2139999D03*
D28*
X17939999Y-2139999D03*
X28099999Y-2139999D03*
D27*
X0Y0D03*
D28*
X-5080000Y0D03*
X5080000Y0D03*
D30*
G36*
X151110885Y26394074D02*
G01*
X151122409Y26380032D01*
X151141046Y26364737D01*
X151162309Y26353372D01*
X151185384Y26346372D01*
X151209375Y26344009D01*
X151233367Y26346372D01*
X151256441Y26353372D01*
X151277705Y26364737D01*
X151296342Y26380033D01*
X151307865Y26394074D01*
X151309737Y26394778D01*
X151311283Y26393509D01*
X151311074Y26391694D01*
X151304546Y26381923D01*
X151276489Y26314190D01*
X151262186Y26242280D01*
X151262186Y26168970D01*
X151276489Y26097060D01*
X151304546Y26029327D01*
X151311074Y26019556D01*
X151311205Y26017560D01*
X151309542Y26016449D01*
X151307865Y26017176D01*
X151296341Y26031218D01*
X151277704Y26046513D01*
X151256441Y26057878D01*
X151233366Y26064878D01*
X151209375Y26067241D01*
X151185383Y26064878D01*
X151162309Y26057878D01*
X151141045Y26046513D01*
X151122408Y26031217D01*
X151110885Y26017176D01*
X151109013Y26016472D01*
X151107467Y26017741D01*
X151107676Y26019556D01*
X151114204Y26029327D01*
X151142261Y26097060D01*
X151156564Y26168970D01*
X151156564Y26242280D01*
X151142261Y26314190D01*
X151114204Y26381923D01*
X151107676Y26391694D01*
X151107545Y26393690D01*
X151109208Y26394801D01*
X151110885Y26394074D01*
G37*
G36*
X149410885Y26394074D02*
G01*
X149422409Y26380032D01*
X149441046Y26364737D01*
X149462309Y26353372D01*
X149485384Y26346372D01*
X149509375Y26344009D01*
X149533367Y26346372D01*
X149556441Y26353372D01*
X149577705Y26364737D01*
X149596342Y26380033D01*
X149607865Y26394074D01*
X149609737Y26394778D01*
X149611283Y26393509D01*
X149611074Y26391694D01*
X149604546Y26381923D01*
X149576489Y26314190D01*
X149562186Y26242280D01*
X149562186Y26168970D01*
X149576489Y26097060D01*
X149604546Y26029327D01*
X149611074Y26019556D01*
X149611205Y26017560D01*
X149609542Y26016449D01*
X149607865Y26017176D01*
X149596341Y26031218D01*
X149577704Y26046513D01*
X149556441Y26057878D01*
X149533366Y26064878D01*
X149509375Y26067241D01*
X149485383Y26064878D01*
X149462309Y26057878D01*
X149441045Y26046513D01*
X149422408Y26031217D01*
X149410885Y26017176D01*
X149409013Y26016472D01*
X149407467Y26017741D01*
X149407676Y26019556D01*
X149414204Y26029327D01*
X149442261Y26097060D01*
X149456564Y26168970D01*
X149456564Y26242280D01*
X149442261Y26314190D01*
X149414204Y26381923D01*
X149407676Y26391694D01*
X149407545Y26393690D01*
X149409208Y26394801D01*
X149410885Y26394074D01*
G37*
G36*
X151960885Y26394074D02*
G01*
X151972409Y26380032D01*
X151991046Y26364737D01*
X152012309Y26353372D01*
X152035384Y26346372D01*
X152059375Y26344009D01*
X152083367Y26346372D01*
X152106441Y26353372D01*
X152127705Y26364737D01*
X152146342Y26380033D01*
X152157865Y26394074D01*
X152159737Y26394778D01*
X152161283Y26393509D01*
X152161074Y26391694D01*
X152154546Y26381923D01*
X152126489Y26314190D01*
X152112186Y26242280D01*
X152112186Y26168970D01*
X152126489Y26097060D01*
X152154546Y26029327D01*
X152161074Y26019556D01*
X152161205Y26017560D01*
X152159542Y26016449D01*
X152157865Y26017176D01*
X152146341Y26031218D01*
X152127704Y26046513D01*
X152106441Y26057878D01*
X152083366Y26064878D01*
X152059375Y26067241D01*
X152035383Y26064878D01*
X152012309Y26057878D01*
X151991045Y26046513D01*
X151972408Y26031217D01*
X151960885Y26017176D01*
X151959013Y26016472D01*
X151957467Y26017741D01*
X151957676Y26019556D01*
X151964204Y26029327D01*
X151992261Y26097060D01*
X152006564Y26168970D01*
X152006564Y26242280D01*
X151992261Y26314190D01*
X151964204Y26381923D01*
X151957676Y26391694D01*
X151957545Y26393690D01*
X151959208Y26394801D01*
X151960885Y26394074D01*
G37*
G36*
X152810885Y26394074D02*
G01*
X152822409Y26380032D01*
X152841046Y26364737D01*
X152862309Y26353372D01*
X152885384Y26346372D01*
X152909375Y26344009D01*
X152933367Y26346372D01*
X152956441Y26353372D01*
X152977705Y26364737D01*
X152996342Y26380033D01*
X153007865Y26394074D01*
X153009737Y26394778D01*
X153011283Y26393509D01*
X153011074Y26391694D01*
X153004546Y26381923D01*
X152976489Y26314190D01*
X152962186Y26242280D01*
X152962186Y26168970D01*
X152976489Y26097060D01*
X153004546Y26029327D01*
X153011074Y26019556D01*
X153011205Y26017560D01*
X153009542Y26016449D01*
X153007865Y26017176D01*
X152996341Y26031218D01*
X152977704Y26046513D01*
X152956441Y26057878D01*
X152933366Y26064878D01*
X152909375Y26067241D01*
X152885383Y26064878D01*
X152862309Y26057878D01*
X152841045Y26046513D01*
X152822408Y26031217D01*
X152810885Y26017176D01*
X152809013Y26016472D01*
X152807467Y26017741D01*
X152807676Y26019556D01*
X152814204Y26029327D01*
X152842261Y26097060D01*
X152856564Y26168970D01*
X152856564Y26242280D01*
X152842261Y26314190D01*
X152814204Y26381923D01*
X152807676Y26391694D01*
X152807545Y26393690D01*
X152809208Y26394801D01*
X152810885Y26394074D01*
G37*
G36*
X150260885Y26394074D02*
G01*
X150272409Y26380032D01*
X150291046Y26364737D01*
X150312309Y26353372D01*
X150335384Y26346372D01*
X150359375Y26344009D01*
X150383367Y26346372D01*
X150406441Y26353372D01*
X150427705Y26364737D01*
X150446342Y26380033D01*
X150457865Y26394074D01*
X150459737Y26394778D01*
X150461283Y26393509D01*
X150461074Y26391694D01*
X150454546Y26381923D01*
X150426489Y26314190D01*
X150412186Y26242280D01*
X150412186Y26168970D01*
X150426489Y26097060D01*
X150454546Y26029327D01*
X150461074Y26019556D01*
X150461205Y26017560D01*
X150459542Y26016449D01*
X150457865Y26017176D01*
X150446341Y26031218D01*
X150427704Y26046513D01*
X150406441Y26057878D01*
X150383366Y26064878D01*
X150359375Y26067241D01*
X150335383Y26064878D01*
X150312309Y26057878D01*
X150291045Y26046513D01*
X150272408Y26031217D01*
X150260885Y26017176D01*
X150259013Y26016472D01*
X150257467Y26017741D01*
X150257676Y26019556D01*
X150264204Y26029327D01*
X150292261Y26097060D01*
X150306564Y26168970D01*
X150306564Y26242280D01*
X150292261Y26314190D01*
X150264204Y26381923D01*
X150257676Y26391694D01*
X150257545Y26393690D01*
X150259208Y26394801D01*
X150260885Y26394074D01*
G37*
G36*
X148555885Y27719074D02*
G01*
X148567409Y27705032D01*
X148586046Y27689737D01*
X148607309Y27678372D01*
X148630384Y27671372D01*
X148654375Y27669009D01*
X148678367Y27671372D01*
X148701441Y27678372D01*
X148722705Y27689737D01*
X148741342Y27705033D01*
X148752865Y27719074D01*
X148754737Y27719778D01*
X148756283Y27718509D01*
X148756074Y27716694D01*
X148749546Y27706923D01*
X148721489Y27639190D01*
X148707186Y27567280D01*
X148707186Y27493970D01*
X148721489Y27422060D01*
X148749546Y27354327D01*
X148756074Y27344556D01*
X148756205Y27342560D01*
X148754542Y27341449D01*
X148752865Y27342176D01*
X148741341Y27356218D01*
X148722704Y27371513D01*
X148701441Y27382878D01*
X148678366Y27389878D01*
X148654375Y27392241D01*
X148630383Y27389878D01*
X148607309Y27382878D01*
X148586045Y27371513D01*
X148567408Y27356217D01*
X148555885Y27342176D01*
X148554013Y27341472D01*
X148552467Y27342741D01*
X148552676Y27344556D01*
X148559204Y27354327D01*
X148587261Y27422060D01*
X148601564Y27493970D01*
X148601564Y27567280D01*
X148587261Y27639190D01*
X148559204Y27706923D01*
X148552676Y27716694D01*
X148552545Y27718690D01*
X148554208Y27719801D01*
X148555885Y27719074D01*
G37*
G36*
X151955885Y27719074D02*
G01*
X151967409Y27705032D01*
X151986046Y27689737D01*
X152007309Y27678372D01*
X152030384Y27671372D01*
X152054375Y27669009D01*
X152078367Y27671372D01*
X152101441Y27678372D01*
X152122705Y27689737D01*
X152141342Y27705033D01*
X152152865Y27719074D01*
X152154737Y27719778D01*
X152156283Y27718509D01*
X152156074Y27716694D01*
X152149546Y27706923D01*
X152121489Y27639190D01*
X152107186Y27567280D01*
X152107186Y27493970D01*
X152121489Y27422060D01*
X152149546Y27354327D01*
X152156074Y27344556D01*
X152156205Y27342560D01*
X152154542Y27341449D01*
X152152865Y27342176D01*
X152141341Y27356218D01*
X152122704Y27371513D01*
X152101441Y27382878D01*
X152078366Y27389878D01*
X152054375Y27392241D01*
X152030383Y27389878D01*
X152007309Y27382878D01*
X151986045Y27371513D01*
X151967408Y27356217D01*
X151955885Y27342176D01*
X151954013Y27341472D01*
X151952467Y27342741D01*
X151952676Y27344556D01*
X151959204Y27354327D01*
X151987261Y27422060D01*
X152001564Y27493970D01*
X152001564Y27567280D01*
X151987261Y27639190D01*
X151959204Y27706923D01*
X151952676Y27716694D01*
X151952545Y27718690D01*
X151954208Y27719801D01*
X151955885Y27719074D01*
G37*
G36*
X151105885Y27719074D02*
G01*
X151117409Y27705032D01*
X151136046Y27689737D01*
X151157309Y27678372D01*
X151180384Y27671372D01*
X151204375Y27669009D01*
X151228367Y27671372D01*
X151251441Y27678372D01*
X151272705Y27689737D01*
X151291342Y27705033D01*
X151302865Y27719074D01*
X151304737Y27719778D01*
X151306283Y27718509D01*
X151306074Y27716694D01*
X151299546Y27706923D01*
X151271489Y27639190D01*
X151257186Y27567280D01*
X151257186Y27493970D01*
X151271489Y27422060D01*
X151299546Y27354327D01*
X151306074Y27344556D01*
X151306205Y27342560D01*
X151304542Y27341449D01*
X151302865Y27342176D01*
X151291341Y27356218D01*
X151272704Y27371513D01*
X151251441Y27382878D01*
X151228366Y27389878D01*
X151204375Y27392241D01*
X151180383Y27389878D01*
X151157309Y27382878D01*
X151136045Y27371513D01*
X151117408Y27356217D01*
X151105885Y27342176D01*
X151104013Y27341472D01*
X151102467Y27342741D01*
X151102676Y27344556D01*
X151109204Y27354327D01*
X151137261Y27422060D01*
X151151564Y27493970D01*
X151151564Y27567280D01*
X151137261Y27639190D01*
X151109204Y27706923D01*
X151102676Y27716694D01*
X151102545Y27718690D01*
X151104208Y27719801D01*
X151105885Y27719074D01*
G37*
G36*
X150255885Y27719074D02*
G01*
X150267409Y27705032D01*
X150286046Y27689737D01*
X150307309Y27678372D01*
X150330384Y27671372D01*
X150354375Y27669009D01*
X150378367Y27671372D01*
X150401441Y27678372D01*
X150422705Y27689737D01*
X150441342Y27705033D01*
X150452865Y27719074D01*
X150454737Y27719778D01*
X150456283Y27718509D01*
X150456074Y27716694D01*
X150449546Y27706923D01*
X150421489Y27639190D01*
X150407186Y27567280D01*
X150407186Y27493970D01*
X150421489Y27422060D01*
X150449546Y27354327D01*
X150456074Y27344556D01*
X150456205Y27342560D01*
X150454542Y27341449D01*
X150452865Y27342176D01*
X150441341Y27356218D01*
X150422704Y27371513D01*
X150401441Y27382878D01*
X150378366Y27389878D01*
X150354375Y27392241D01*
X150330383Y27389878D01*
X150307309Y27382878D01*
X150286045Y27371513D01*
X150267408Y27356217D01*
X150255885Y27342176D01*
X150254013Y27341472D01*
X150252467Y27342741D01*
X150252676Y27344556D01*
X150259204Y27354327D01*
X150287261Y27422060D01*
X150301564Y27493970D01*
X150301564Y27567280D01*
X150287261Y27639190D01*
X150259204Y27706923D01*
X150252676Y27716694D01*
X150252545Y27718690D01*
X150254208Y27719801D01*
X150255885Y27719074D01*
G37*
G36*
X149405885Y27719074D02*
G01*
X149417409Y27705032D01*
X149436046Y27689737D01*
X149457309Y27678372D01*
X149480384Y27671372D01*
X149504375Y27669009D01*
X149528367Y27671372D01*
X149551441Y27678372D01*
X149572705Y27689737D01*
X149591342Y27705033D01*
X149602865Y27719074D01*
X149604737Y27719778D01*
X149606283Y27718509D01*
X149606074Y27716694D01*
X149599546Y27706923D01*
X149571489Y27639190D01*
X149557186Y27567280D01*
X149557186Y27493970D01*
X149571489Y27422060D01*
X149599546Y27354327D01*
X149606074Y27344556D01*
X149606205Y27342560D01*
X149604542Y27341449D01*
X149602865Y27342176D01*
X149591341Y27356218D01*
X149572704Y27371513D01*
X149551441Y27382878D01*
X149528366Y27389878D01*
X149504375Y27392241D01*
X149480383Y27389878D01*
X149457309Y27382878D01*
X149436045Y27371513D01*
X149417408Y27356217D01*
X149405885Y27342176D01*
X149404013Y27341472D01*
X149402467Y27342741D01*
X149402676Y27344556D01*
X149409204Y27354327D01*
X149437261Y27422060D01*
X149451564Y27493970D01*
X149451564Y27567280D01*
X149437261Y27639190D01*
X149409204Y27706923D01*
X149402676Y27716694D01*
X149402545Y27718690D01*
X149404208Y27719801D01*
X149405885Y27719074D01*
G37*
G36*
X152805885Y27719074D02*
G01*
X152817409Y27705032D01*
X152836046Y27689737D01*
X152857309Y27678372D01*
X152880384Y27671372D01*
X152904375Y27669009D01*
X152928367Y27671372D01*
X152951441Y27678372D01*
X152972705Y27689737D01*
X152991342Y27705033D01*
X153002865Y27719074D01*
X153004737Y27719778D01*
X153006283Y27718509D01*
X153006074Y27716694D01*
X152999546Y27706923D01*
X152971489Y27639190D01*
X152957186Y27567280D01*
X152957186Y27493970D01*
X152971489Y27422060D01*
X152999546Y27354327D01*
X153006074Y27344556D01*
X153006205Y27342560D01*
X153004542Y27341449D01*
X153002865Y27342176D01*
X152991341Y27356218D01*
X152972704Y27371513D01*
X152951441Y27382878D01*
X152928366Y27389878D01*
X152904375Y27392241D01*
X152880383Y27389878D01*
X152857309Y27382878D01*
X152836045Y27371513D01*
X152817408Y27356217D01*
X152805885Y27342176D01*
X152804013Y27341472D01*
X152802467Y27342741D01*
X152802676Y27344556D01*
X152809204Y27354327D01*
X152837261Y27422060D01*
X152851564Y27493970D01*
X152851564Y27567280D01*
X152837261Y27639190D01*
X152809204Y27706923D01*
X152802676Y27716694D01*
X152802545Y27718690D01*
X152804208Y27719801D01*
X152805885Y27719074D01*
G37*
G36*
X153658382Y27715336D02*
G01*
X153669909Y27701291D01*
X153688546Y27685996D01*
X153709810Y27674631D01*
X153732885Y27667631D01*
X153756876Y27665268D01*
X153780867Y27667631D01*
X153803942Y27674631D01*
X153825206Y27685997D01*
X153843842Y27701292D01*
X153855368Y27715336D01*
X153857240Y27716040D01*
X153858786Y27714771D01*
X153858577Y27712956D01*
X153854546Y27706923D01*
X153826489Y27639190D01*
X153812186Y27567280D01*
X153812186Y27493970D01*
X153826489Y27422060D01*
X153854546Y27354327D01*
X153858577Y27348294D01*
X153858708Y27346298D01*
X153857045Y27345187D01*
X153855368Y27345914D01*
X153843841Y27359959D01*
X153825204Y27375254D01*
X153803940Y27386619D01*
X153780865Y27393619D01*
X153756874Y27395982D01*
X153732883Y27393619D01*
X153709808Y27386619D01*
X153688544Y27375253D01*
X153669908Y27359958D01*
X153658382Y27345914D01*
X153656510Y27345210D01*
X153654964Y27346479D01*
X153655173Y27348294D01*
X153659204Y27354327D01*
X153687261Y27422060D01*
X153701564Y27493970D01*
X153701564Y27567280D01*
X153687261Y27639190D01*
X153659204Y27706923D01*
X153655173Y27712956D01*
X153655042Y27714952D01*
X153656705Y27716063D01*
X153658382Y27715336D01*
G37*
G36*
X159761845Y28520801D02*
G01*
X159762610Y28518953D01*
X159761570Y28517450D01*
X159745546Y28508886D01*
X159726909Y28493590D01*
X159711614Y28474953D01*
X159700249Y28453690D01*
X159693249Y28430615D01*
X159690886Y28406624D01*
X159693249Y28382633D01*
X159700249Y28359558D01*
X159711614Y28338294D01*
X159726910Y28319657D01*
X159745547Y28304362D01*
X159766810Y28292997D01*
X159789885Y28285997D01*
X159814072Y28283615D01*
X159815698Y28282450D01*
X159815502Y28280460D01*
X159813876Y28279625D01*
X159273624Y28279625D01*
X159271892Y28280625D01*
X159271892Y28282625D01*
X159273428Y28283615D01*
X159297615Y28285997D01*
X159320690Y28292997D01*
X159341954Y28304362D01*
X159360591Y28319657D01*
X159375886Y28338294D01*
X159387251Y28359558D01*
X159394251Y28382633D01*
X159396614Y28406624D01*
X159394251Y28430615D01*
X159387251Y28453690D01*
X159375886Y28474954D01*
X159360591Y28493591D01*
X159341954Y28508886D01*
X159325930Y28517450D01*
X159324874Y28519149D01*
X159325817Y28520912D01*
X159327638Y28521062D01*
X159355357Y28509581D01*
X159480140Y28484760D01*
X159607360Y28484760D01*
X159732143Y28509581D01*
X159759862Y28521062D01*
X159761845Y28520801D01*
G37*
M02*
