M48
; DRILL file {KiCad (5.1.10)-1} date 09/02/21 21:34:47
; FORMAT={-:-/ absolute / inch / decimal}
; #@! TF.CreationDate,2021-09-02T21:34:47+08:00
; #@! TF.GenerationSoftware,Kicad,Pcbnew,(5.1.10)-1
; #@! TF.FileFunction,Plated,1,2,PTH
FMAT,2
INCH
T1C0.0157
T2C0.0236
T3C0.0276
T4C0.0315
T5C0.0354
T6C0.0394
T7C0.0433
T8C0.0579
T9C0.0866
%
G90
G05
T1
X-0.6665Y1.1469
X-0.6665Y0.5844
X-0.6665Y0.2734
X-0.6665Y-3.3594
X-0.6475Y1.1928
X-0.6475Y1.1009
X-0.6475Y0.6303
X-0.6475Y0.5384
X-0.6475Y0.3194
X-0.6475Y0.2275
X-0.6475Y-3.3134
X-0.6475Y-3.4053
X-0.6016Y1.2118
X-0.6016Y1.0819
X-0.6016Y0.6493
X-0.6016Y0.5194
X-0.6016Y0.3384
X-0.6016Y0.2085
X-0.6016Y-3.2944
X-0.6016Y-3.4243
X-0.5556Y1.1928
X-0.5556Y1.1009
X-0.5556Y0.6303
X-0.5556Y0.5384
X-0.5556Y0.3194
X-0.5556Y0.2275
X-0.5556Y-3.3134
X-0.5556Y-3.4053
X-0.5366Y1.1469
X-0.5366Y0.5844
X-0.5366Y0.2734
X-0.5366Y-3.3594
X-0.4375Y1.0375
X-0.2812Y1.0062
X-0.125Y0.975
X0.0312Y1.0375
X0.1875Y1.0062
X0.3438Y0.9437
X0.5Y0.9125
X0.6562Y0.975
X0.8125Y1.0375
X0.9688Y1.0062
X1.125Y0.9437
X1.2812Y0.975
X1.4375Y1.0375
X1.5938Y1.0062
X1.75Y0.9437
X1.9062Y0.9125
X2.0625Y0.975
X2.2188Y1.0375
X2.375Y1.0062
X2.5312Y0.9437
X2.6875Y0.9125
X2.8438Y0.975
X3.0Y1.0375
X3.1562Y1.0062
X3.3125Y0.9437
X3.4688Y0.975
X3.625Y1.0375
X3.7085Y-3.6875
X3.7275Y-3.6416
X3.7275Y-3.7334
X3.7734Y-3.6225
X3.7734Y-3.7525
X3.7812Y1.0062
X3.8194Y-3.6416
X3.8194Y-3.7334
X3.8384Y-3.6875
X3.9375Y0.9437
X4.0938Y0.9125
X4.25Y0.975
X4.6927Y0.3734
X4.7118Y0.4194
X4.7118Y0.3275
X4.7577Y0.4384
X4.7577Y0.3085
X4.8036Y0.4194
X4.8036Y0.3275
X4.8227Y0.3734
X4.9531Y0.8969
X5.6094Y0.6
X5.8358Y1.0839
X5.8693Y1.0839
X5.8695Y1.0317
X5.9027Y1.0839
X5.9029Y1.0317
X5.9219Y0.9281
X5.9362Y1.0839
X5.9364Y1.0317
X5.9697Y1.0839
X5.9699Y1.0317
X5.9895Y0.9125
X6.0031Y1.0839
X6.0033Y1.0317
X6.0366Y1.0839
X6.0368Y1.0317
X6.0703Y1.0839
X6.0749Y0.8812
X6.1406Y0.475
X6.1406Y0.2719
X6.5312Y0.1781
X7.0992Y0.3734
X7.1183Y0.4194
X7.1183Y0.3275
X7.1642Y0.4384
X7.1642Y0.3085
X7.2101Y0.4194
X7.2101Y0.3275
X7.2291Y0.3734
X7.3438Y1.0062
X7.5Y1.0375
X7.6562Y0.9437
X7.8125Y0.975
X7.9688Y1.0062
X8.0835Y-3.6094
X8.1025Y-3.5634
X8.1025Y-3.6553
X8.125Y1.0375
X8.1484Y-3.5444
X8.1484Y-3.6743
X8.1944Y-3.5634
X8.1944Y-3.6553
X8.2134Y-3.6094
X8.2812Y0.9437
X8.4375Y0.9125
X8.5938Y0.975
X8.75Y1.0062
X8.9062Y1.0375
X9.0625Y0.9437
X9.2188Y0.975
X9.375Y1.0062
X9.5312Y1.0375
X9.6875Y0.9437
X9.8438Y0.9125
X10.0Y0.975
X10.1562Y1.0062
X10.3125Y1.0375
X10.4688Y0.9437
X10.625Y0.975
X10.7812Y1.0062
X10.9375Y1.0375
X11.0938Y0.9437
X11.25Y0.9787
X11.4062Y1.0062
X11.5625Y0.9437
X11.7188Y0.975
X11.875Y1.0062
X12.4585Y1.1469
X12.4585Y0.5844
X12.4585Y0.2734
X12.4585Y-3.3594
X12.4775Y1.1928
X12.4775Y1.1009
X12.4775Y0.6303
X12.4775Y0.5384
X12.4775Y0.3194
X12.4775Y0.2275
X12.4775Y-3.3134
X12.4775Y-3.4053
X12.5234Y1.2118
X12.5234Y1.0819
X12.5234Y0.6493
X12.5234Y0.5194
X12.5234Y0.3384
X12.5234Y0.2085
X12.5234Y-3.2944
X12.5234Y-3.4243
X12.5694Y1.1928
X12.5694Y1.1009
X12.5694Y0.6303
X12.5694Y0.5384
X12.5694Y0.3194
X12.5694Y0.2275
X12.5694Y-3.3134
X12.5694Y-3.4053
X12.5884Y1.1469
X12.5884Y0.5844
X12.5884Y0.2734
X12.5884Y-3.3594
T2
X6.2812Y1.1469
X6.2812Y1.0878
T3
X5.0Y0.8656
X5.3Y0.8656
X5.4031Y0.8656
X5.4031Y0.7719
X5.4062Y0.9594
X5.7031Y0.8656
X5.7031Y0.7719
X5.7062Y0.9594
X6.2313Y0.85
X6.2313Y0.7562
X6.5312Y0.85
X6.5312Y0.7562
T4
X-0.4375Y1.1
X-0.4375Y0.8
X-0.2812Y1.1
X-0.2812Y0.8
X-0.125Y1.1
X-0.125Y0.8
X0.0312Y1.1
X0.0312Y0.8
X0.1875Y1.1
X0.1875Y0.8
X0.3438Y1.1
X0.3438Y0.8
X0.5Y1.1
X0.5Y0.8
X0.6562Y1.1
X0.6562Y0.8
X0.8125Y1.1
X0.8125Y0.8
X0.9688Y1.1
X0.9688Y0.8
X1.125Y1.1
X1.125Y0.8
X1.2812Y1.1
X1.2812Y0.8
X1.4375Y1.1
X1.4375Y0.8
X1.5938Y1.1
X1.5938Y0.8
X1.75Y1.1
X1.75Y0.8
X1.9062Y1.1
X1.9062Y0.8
X2.0625Y1.1
X2.0625Y0.8
X2.2188Y1.1
X2.2188Y0.8
X2.375Y1.1
X2.375Y0.8
X2.5312Y1.1
X2.5312Y0.8
X2.6875Y1.1
X2.6875Y0.8
X2.8438Y1.1
X2.8438Y0.8
X3.0Y1.1
X3.0Y0.8
X3.1562Y1.1
X3.1562Y0.8
X3.3125Y1.1
X3.3125Y0.8
X3.4688Y1.1
X3.4688Y0.8
X3.625Y1.1
X3.625Y0.8
X3.7812Y1.1
X3.7812Y0.8
X3.9375Y1.1
X3.9375Y0.8
X4.0938Y1.1
X4.0938Y0.8
X4.25Y1.1
X4.25Y0.8
X4.4062Y1.1
X4.4062Y0.8
X4.5625Y1.1
X4.5625Y0.8
X5.0109Y0.6687
X5.0109Y0.0687
X5.1109Y0.6687
X5.1109Y0.0687
X5.2109Y0.6687
X5.2109Y0.0687
X5.3109Y0.6687
X5.3109Y0.0687
X5.4031Y1.1625
X5.4031Y1.0531
X5.4109Y0.6687
X5.4109Y0.0687
X5.5109Y0.6687
X5.5109Y0.0687
X5.6109Y0.6687
X5.6109Y0.0687
X5.7031Y1.1625
X5.7031Y1.0531
X5.7109Y0.6687
X5.7109Y0.0687
X5.8109Y0.6687
X5.8109Y0.0687
X5.9109Y0.6687
X5.9109Y0.0687
X5.9172Y0.5375
X5.9219Y0.1938
X6.0109Y0.6687
X6.0109Y0.0687
X6.0156Y0.5375
X6.0203Y0.1938
X6.1094Y0.9594
X6.1094Y0.7625
X6.1109Y0.6687
X6.1109Y0.0687
X6.2109Y0.6687
X6.2109Y0.0687
X6.3109Y0.6687
X6.3109Y0.0687
X6.4109Y0.6687
X6.4109Y0.0687
X6.5109Y0.6687
X6.5109Y0.0687
X6.6109Y0.6687
X6.6109Y0.0687
X6.6719Y0.9437
X6.6719Y0.7469
X6.7109Y0.6687
X6.7109Y0.0687
X6.8109Y0.6687
X6.8109Y0.0687
X6.8547Y0.8344
X6.9109Y0.6687
X6.9109Y0.0687
X7.0469Y0.8344
X7.2344Y0.9594
X7.2344Y0.7625
X7.3438Y1.1
X7.3438Y0.8
X7.5Y1.1
X7.5Y0.8
X7.6562Y1.1
X7.6562Y0.8
X7.8125Y1.1
X7.8125Y0.8
X7.9688Y1.1
X7.9688Y0.8
X8.125Y1.1
X8.125Y0.8
X8.2812Y1.1
X8.2812Y0.8
X8.4375Y1.1
X8.4375Y0.8
X8.5938Y1.1
X8.5938Y0.8
X8.75Y1.1
X8.75Y0.8
X8.9062Y1.1
X8.9062Y0.8
X9.0625Y1.1
X9.0625Y0.8
X9.2188Y1.1
X9.2188Y0.8
X9.375Y1.1
X9.375Y0.8
X9.5312Y1.1
X9.5312Y0.8
X9.6875Y1.1
X9.6875Y0.8
X9.8438Y1.1
X9.8438Y0.8
X10.0Y1.1
X10.0Y0.8
X10.1562Y1.1
X10.1562Y0.8
X10.3125Y1.1
X10.3125Y0.8
X10.4688Y1.1
X10.4688Y0.8
X10.625Y1.1
X10.625Y0.8
X10.7812Y1.1
X10.7812Y0.8
X10.9375Y1.1
X10.9375Y0.8
X11.0938Y1.1
X11.0938Y0.8
X11.25Y1.1
X11.25Y0.8
X11.4062Y1.1
X11.4062Y0.8
X11.5625Y1.1
X11.5625Y0.8
X11.7188Y1.1
X11.7188Y0.8
X11.875Y1.1
X11.875Y0.8
X12.0312Y1.1
X12.0312Y0.8
X12.1875Y1.1
X12.1875Y0.8
X12.3438Y1.1
X12.3438Y0.8
T5
X5.2031Y1.1156
X5.3031Y1.1156
T6
X6.2219Y0.3656
X6.3219Y0.3656
X6.4219Y0.3656
X6.4719Y1.1469
X6.4719Y1.0469
X6.5219Y0.3656
X6.5719Y1.1469
X6.5719Y1.0469
X6.6219Y0.3656
X6.6719Y1.1469
X6.6719Y1.0469
X6.7219Y0.3656
X6.8219Y0.3656
T7
X4.7753Y1.1625
X4.7753Y0.9853
X5.0312Y1.1625
X5.0312Y0.9853
X6.8438Y1.1625
X6.8438Y0.9853
X7.0997Y1.1625
X7.0997Y0.9853
T8
X-0.474Y-1.4
X-0.3138Y-0.65
X-0.224Y-1.3
X-0.15Y0.1
X-0.0638Y-0.55
X0.1Y0.2
X0.3622Y-2.9843
X0.4559Y-2.9843
X0.526Y-1.4843
X0.6122Y-2.8843
X0.7059Y-2.8843
X0.7135Y-1.4843
X0.737Y-2.2343
X0.7563Y0.0157
X0.776Y-1.3843
X0.7799Y-0.7343
X0.9635Y-1.3843
X0.987Y-2.1343
X1.0063Y0.1157
X1.0299Y-0.6343
X1.5063Y0.0157
X1.7173Y-0.7343
X1.7449Y-1.4843
X1.7563Y0.1157
X1.9555Y-2.2343
X1.9673Y-0.6343
X1.9949Y-1.3843
X2.2055Y-2.1343
X2.2402Y0.1
X2.4902Y0.2
X2.5485Y-0.6824
X2.576Y-1.4553
X2.5973Y-3.0537
X2.689Y-3.0732
X2.7867Y-2.2667
X2.8138Y-0.6366
X2.8414Y-1.4094
X2.8626Y-3.0078
X2.9543Y-3.0273
X3.052Y-2.2208
X3.0713Y-0.0269
X3.2821Y-0.8383
X3.3096Y-1.6112
X3.3366Y0.0189
X3.5203Y-2.4226
X3.5474Y-0.7925
X3.575Y-1.5653
X3.7856Y-2.3768
X3.8049Y-0.1828
X3.9059Y-3.2713
X3.9976Y-3.2908
X4.0157Y-0.9943
X4.0433Y-1.7671
X4.0703Y-0.137
X4.1712Y-3.2255
X4.2539Y-2.5785
X4.2629Y-3.245
X4.281Y-0.9484
X4.3086Y-1.7213
X4.5192Y-2.5327
X4.5385Y-0.3388
X4.7493Y-1.1502
X4.7769Y-1.9231
X4.8039Y-0.2929
X4.9875Y-2.7345
X5.0146Y-1.1044
X5.0422Y-1.8772
X5.0982Y-3.5247
X5.1898Y-3.5442
X5.2528Y-2.6886
X5.2721Y-0.4947
X5.3635Y-3.4789
X5.4551Y-3.4984
X5.5375Y-0.4489
X6.1281Y-1.2905
X6.2565Y-2.7968
X6.3391Y-0.4791
X6.3519Y-1.1408
X6.4675Y-1.9854
X6.4802Y-2.647
X6.5629Y-0.3293
X6.6912Y-1.8356
X6.8617Y-1.1346
X6.9901Y-2.6409
X7.0557Y-3.394
X7.0727Y-0.3232
X7.0855Y-0.9848
X7.2011Y-1.8295
X7.2138Y-2.4911
X7.2795Y-3.2442
X7.2965Y-0.1734
X7.4248Y-1.6797
X7.5953Y-0.9787
X7.7237Y-2.485
X7.8064Y-0.1673
X7.8191Y-0.8289
X7.9347Y-1.6736
X7.9474Y-2.3352
X8.0301Y-0.0175
X8.1584Y-1.5238
X8.3289Y-0.8227
X8.4573Y-2.329
X8.54Y-0.0113
X8.5527Y-0.6729
X8.555Y-3.1355
X8.6467Y-3.116
X8.6683Y-1.5176
X8.681Y-2.1792
X8.7637Y0.1385
X8.7787Y-2.9857
X8.8704Y-2.9663
X8.8921Y-1.3678
X9.1535Y-0.6925
X9.2819Y-2.2343
X9.3646Y0.1
X9.4035Y-0.5925
X9.4929Y-1.4843
X9.5319Y-2.1343
X9.6146Y0.2
X9.7429Y-1.3843
X9.887Y-0.7343
X10.0319Y-2.2343
X10.098Y0.0157
X10.137Y-0.6343
X10.2429Y-1.4843
X10.2819Y-2.1343
X10.348Y0.1157
X10.4929Y-1.3843
X10.637Y-0.7343
X10.848Y0.0157
X10.887Y-0.6343
X11.0632Y-2.2343
X11.098Y0.1157
X11.223Y0.0157
X11.3132Y-2.1343
X11.4382Y-2.2343
X11.4614Y-1.4843
X11.473Y0.1157
X11.5748Y-0.7343
X11.598Y0.0157
X11.6882Y-2.1343
X11.7114Y-1.3843
X11.762Y-2.9861
X11.8248Y-0.6343
X11.848Y0.1157
X11.8558Y-2.9861
X12.012Y-2.8861
X12.0944Y-2.2343
X12.1058Y-2.8861
X12.3444Y-2.1343
T9
X-0.6016Y1.1469
X-0.6016Y0.5844
X-0.6016Y0.2734
X-0.6016Y-3.3594
X3.7734Y-3.6875
X4.7577Y0.3734
X7.1642Y0.3734
X8.1484Y-3.6094
X12.5234Y1.1469
X12.5234Y0.5844
X12.5234Y0.2734
X12.5234Y-3.3594
T2
G00X5.7828Y1.1876
M15
G01X5.7828Y1.2191
M16
G05
G00X5.7828Y1.0408
M15
G01X5.7828Y1.0998
M16
G05
G00X6.1234Y1.1876
M15
G01X6.1234Y1.2191
M16
G05
G00X6.1234Y1.0408
M15
G01X6.1234Y1.0998
M16
G05
T0
M30
